<svg id="svg" version="1.1" xmlns="http://www.w3.org/2000/svg" xmlns:xlink="http://www.w3.org/1999/xlink" width="400" height="400" viewBox="0, 0, 400,400"><g id="svgg"><path id="path0" d="M0.048 26.500 C 0.081 44.431,0.220 52.418,0.478 51.200 C 3.756 35.745,8.950 26.058,19.256 16.180 C 26.745 9.001,42.718 0.936,49.796 0.760 C 50.678 0.738,51.850 0.576,52.400 0.400 C 52.950 0.224,41.385 0.062,26.700 0.040 L 0.000 0.000 0.048 26.500 M347.600 0.400 C 348.150 0.576,349.322 0.738,350.204 0.760 C 352.372 0.814,360.892 3.614,365.433 5.765 C 382.060 13.641,394.610 29.271,398.559 47.021 C 398.900 48.549,399.344 50.520,399.548 51.400 C 399.788 52.439,399.932 43.700,399.959 26.500 L 400.000 0.000 373.300 0.040 C 358.615 0.062,347.050 0.224,347.600 0.400 M140.800 105.262 C 137.610 105.443,131.040 105.778,126.200 106.006 C 115.311 106.519,107.934 107.114,96.000 108.445 C 81.310 110.082,70.172 118.141,65.303 130.654 C 63.852 134.382,63.664 135.132,62.054 143.600 C 61.125 148.484,60.134 156.528,59.615 163.400 C 57.671 189.114,58.171 236.008,60.576 253.600 C 63.950 278.272,69.013 287.629,82.600 294.298 C 89.449 297.660,92.278 298.045,127.400 300.392 C 153.301 302.123,252.604 301.883,278.800 300.027 C 281.990 299.801,287.120 299.437,290.200 299.218 C 296.231 298.790,301.623 298.268,306.400 297.649 C 319.039 296.013,330.054 287.456,334.831 275.562 C 335.868 272.981,336.109 272.049,337.357 265.800 C 338.869 258.232,339.792 251.517,340.381 243.800 C 342.436 216.904,341.929 172.155,339.346 152.600 C 338.458 145.872,338.093 143.690,336.867 137.770 C 334.071 124.258,323.693 112.900,311.200 109.677 C 306.019 108.341,289.732 106.750,273.600 106.004 C 268.650 105.775,261.360 105.408,257.400 105.187 C 248.835 104.710,149.377 104.773,140.800 105.262 M178.862 155.667 C 183.338 158.564,189.160 162.315,191.800 164.003 C 194.440 165.692,205.060 172.531,215.400 179.202 C 225.740 185.874,235.769 192.337,237.687 193.566 C 251.661 202.519,252.838 203.337,252.357 203.756 C 252.197 203.896,250.236 205.164,239.000 212.400 C 235.480 214.667,231.340 217.338,229.800 218.336 C 228.260 219.333,221.780 223.502,215.400 227.600 C 209.020 231.698,202.540 235.867,201.000 236.864 C 199.460 237.862,195.320 240.532,191.800 242.799 C 188.280 245.065,183.690 248.030,181.600 249.387 C 173.110 254.901,171.291 256.000,170.660 256.000 C 169.975 256.000,169.585 151.349,170.267 150.667 C 170.413 150.520,170.576 150.400,170.629 150.400 C 170.682 150.400,174.387 152.770,178.862 155.667 M0.048 373.500 L 0.000 400.000 26.700 399.960 C 41.385 399.938,52.950 399.776,52.400 399.600 C 51.850 399.424,50.789 399.262,50.043 399.240 C 46.017 399.122,35.087 394.951,29.000 391.210 C 13.696 381.805,4.615 368.302,0.478 348.800 C 0.220 347.582,0.081 355.569,0.048 373.500 M399.457 349.000 C 394.993 375.027,374.318 395.554,348.600 399.494 C 347.500 399.662,358.554 399.846,373.164 399.903 C 387.774 399.959,399.790 399.943,399.867 399.867 C 399.943 399.790,399.959 387.864,399.903 373.364 C 399.839 357.069,399.669 347.764,399.457 349.000 " stroke="none" fill="#fbfbfb" fill-rule="evenodd"></path><path id="path1" d="M58.665 0.269 C 58.516 0.418,56.122 0.773,53.345 1.059 C 29.456 3.517,8.721 21.763,2.402 45.887 C 1.955 47.595,1.398 50.615,1.165 52.597 C 0.932 54.579,0.567 56.830,0.355 57.600 C -0.395 60.323,0.137 341.402,0.902 346.600 C 5.036 374.687,25.955 395.526,53.600 399.095 C 61.245 400.083,338.755 400.083,346.400 399.095 C 374.615 395.452,395.077 374.598,399.281 345.200 C 399.970 340.379,399.957 59.323,399.267 54.600 C 394.991 25.323,374.543 4.501,346.552 0.919 C 341.182 0.232,59.338 -0.405,58.665 0.269 M264.200 104.765 C 305.847 106.930,313.331 108.130,322.082 114.049 C 338.158 124.922,341.972 142.004,341.991 203.200 C 342.009 264.426,338.206 281.429,322.048 292.372 C 315.847 296.572,311.470 297.919,300.600 298.977 C 272.573 301.702,256.613 302.206,199.600 302.164 C 140.678 302.121,130.977 301.798,97.600 298.768 C 77.391 296.934,65.926 286.298,61.847 265.600 C 58.740 249.838,58.000 237.819,58.000 203.140 C 58.000 137.675,62.599 120.882,83.220 111.039 C 90.766 107.437,115.020 105.107,154.000 104.238 C 167.769 103.932,256.304 104.355,264.200 104.765 M170.800 203.532 L 170.800 255.550 181.700 248.514 C 187.695 244.644,203.130 234.698,216.000 226.411 C 228.870 218.124,242.149 209.570,245.510 207.402 C 248.870 205.234,251.480 203.334,251.310 203.180 C 251.139 203.026,246.860 200.241,241.800 196.991 C 230.711 189.870,198.837 169.359,195.200 167.004 C 179.456 156.810,171.763 151.884,171.326 151.716 C 170.893 151.550,170.800 160.726,170.800 203.532 " stroke="none" fill="#044cac" fill-rule="evenodd"></path><path id="path2" d="M55.000 0.400 C 54.391 0.662,54.630 0.749,56.000 0.766 C 56.990 0.778,58.070 0.613,58.400 0.400 C 59.174 -0.100,56.165 -0.100,55.000 0.400 M341.600 0.400 C 341.930 0.613,343.010 0.778,344.000 0.766 C 345.370 0.749,345.609 0.662,345.000 0.400 C 343.835 -0.100,340.826 -0.100,341.600 0.400 M51.100 1.082 C 51.595 1.178,52.405 1.178,52.900 1.082 C 53.395 0.987,52.990 0.909,52.000 0.909 C 51.010 0.909,50.605 0.987,51.100 1.082 M347.100 1.082 C 347.595 1.178,348.405 1.178,348.900 1.082 C 349.395 0.987,348.990 0.909,348.000 0.909 C 347.010 0.909,346.605 0.987,347.100 1.082 M43.200 2.818 C 42.762 3.115,42.924 3.152,43.800 2.956 C 45.271 2.627,45.590 2.398,44.567 2.406 C 44.145 2.409,43.530 2.595,43.200 2.818 M354.833 2.544 C 354.925 2.623,355.540 2.808,356.200 2.956 C 357.076 3.152,357.238 3.115,356.800 2.818 C 356.260 2.453,354.432 2.198,354.833 2.544 M37.700 4.634 C 36.985 4.946,36.400 5.290,36.400 5.398 C 36.400 5.576,39.576 4.451,39.967 4.135 C 40.395 3.788,38.862 4.126,37.700 4.634 M360.033 4.135 C 360.419 4.447,363.600 5.577,363.600 5.402 C 363.600 5.163,360.851 4.000,360.284 4.000 C 360.055 4.000,359.942 4.061,360.033 4.135 M32.437 7.194 C 30.807 8.059,29.277 8.973,29.037 9.225 C 28.692 9.587,35.313 6.249,35.967 5.732 C 36.717 5.138,34.868 5.903,32.437 7.194 M367.233 7.341 C 367.807 7.828,371.200 9.636,371.200 9.455 C 371.200 9.183,367.857 7.200,367.398 7.200 C 367.216 7.200,367.142 7.264,367.233 7.341 M23.800 12.658 C 20.385 15.114,14.696 21.061,11.612 25.400 C 10.577 26.857,12.037 25.254,15.201 21.461 C 17.842 18.294,21.730 14.601,25.031 12.122 C 26.966 10.669,25.951 11.111,23.800 12.658 M374.000 11.362 C 374.000 11.472,374.855 12.145,375.900 12.858 C 376.945 13.572,379.778 16.145,382.195 18.578 C 384.612 21.010,385.667 21.920,384.539 20.600 C 381.136 16.617,374.000 10.362,374.000 11.362 M387.140 24.316 C 387.633 25.009,388.244 25.704,388.497 25.860 C 388.750 26.017,388.554 25.577,388.060 24.884 C 387.567 24.191,386.956 23.496,386.703 23.340 C 386.450 23.183,386.646 23.623,387.140 24.316 M8.702 29.700 C 7.815 31.053,5.529 35.663,5.674 35.806 C 5.743 35.875,6.640 34.327,7.667 32.366 C 9.502 28.860,9.866 27.924,8.702 29.700 M392.304 32.266 C 393.347 34.282,394.257 35.875,394.326 35.807 C 394.501 35.632,391.801 30.373,391.037 29.400 C 390.691 28.960,391.261 30.250,392.304 32.266 M4.596 37.872 C 4.258 38.681,4.033 39.500,4.097 39.691 C 4.161 39.882,4.516 39.220,4.887 38.219 C 5.693 36.045,5.470 35.779,4.596 37.872 M395.113 38.219 C 395.484 39.220,395.839 39.882,395.903 39.691 C 396.031 39.306,394.893 36.400,394.614 36.400 C 394.517 36.400,394.742 37.219,395.113 38.219 M396.039 40.400 C 396.024 40.510,396.375 41.680,396.820 43.000 C 397.264 44.320,397.540 44.834,397.432 44.143 C 397.256 43.009,396.104 39.914,396.039 40.400 M2.864 42.744 C 2.609 43.596,2.413 44.542,2.428 44.846 C 2.443 45.151,2.724 44.526,3.052 43.458 C 3.380 42.390,3.577 41.443,3.489 41.355 C 3.400 41.267,3.119 41.892,2.864 42.744 M1.849 46.215 C 1.712 46.573,1.618 47.256,1.641 47.733 C 1.667 48.281,1.803 48.086,2.010 47.203 C 2.360 45.716,2.265 45.133,1.849 46.215 M397.858 46.800 C 398.175 48.525,398.402 48.851,398.394 47.567 C 398.391 47.035,398.211 46.330,397.994 46.000 C 397.718 45.578,397.677 45.815,397.858 46.800 M1.053 50.036 C 0.914 50.731,0.821 51.773,0.847 52.350 C 0.872 52.928,1.055 52.427,1.252 51.239 C 1.637 48.921,1.473 47.934,1.053 50.036 M398.681 50.800 C 398.806 52.010,398.974 53.075,399.054 53.167 C 399.335 53.487,399.117 50.591,398.787 49.600 C 398.571 48.954,398.534 49.380,398.681 50.800 M0.305 54.400 C -0.170 56.013,-0.071 58.364,0.435 57.495 C 0.661 57.107,0.790 56.027,0.723 55.095 C 0.618 53.643,0.558 53.544,0.305 54.400 M399.212 55.400 C 399.212 56.280,399.387 57.270,399.600 57.600 C 399.886 58.042,399.988 57.779,399.988 56.600 C 399.988 55.720,399.813 54.730,399.600 54.400 C 399.314 53.958,399.212 54.221,399.212 55.400 M179.300 104.300 C 190.685 104.359,209.315 104.359,220.700 104.300 C 232.085 104.241,222.770 104.193,200.000 104.193 C 177.230 104.193,167.915 104.241,179.300 104.300 M145.300 104.698 C 147.665 104.769,151.535 104.769,153.900 104.698 C 156.265 104.628,154.330 104.570,149.600 104.570 C 144.870 104.570,142.935 104.628,145.300 104.698 M246.100 104.698 C 248.465 104.769,252.335 104.769,254.700 104.698 C 257.065 104.628,255.130 104.570,250.400 104.570 C 245.670 104.570,243.735 104.628,246.100 104.698 M134.500 105.091 C 135.325 105.178,136.675 105.178,137.500 105.091 C 138.325 105.005,137.650 104.934,136.000 104.934 C 134.350 104.934,133.675 105.005,134.500 105.091 M262.500 105.091 C 263.325 105.178,264.675 105.178,265.500 105.091 C 266.325 105.005,265.650 104.934,264.000 104.934 C 262.350 104.934,261.675 105.005,262.500 105.091 M125.500 105.496 C 126.875 105.574,129.125 105.574,130.500 105.496 C 131.875 105.418,130.750 105.354,128.000 105.354 C 125.250 105.354,124.125 105.418,125.500 105.496 M269.500 105.496 C 270.875 105.574,273.125 105.574,274.500 105.496 C 275.875 105.418,274.750 105.354,272.000 105.354 C 269.250 105.354,268.125 105.418,269.500 105.496 M114.400 106.000 L 111.400 106.256 114.000 106.285 C 115.430 106.300,117.680 106.179,119.000 106.015 L 121.400 105.718 119.400 105.731 C 118.300 105.738,116.050 105.859,114.400 106.000 M281.000 105.998 C 283.522 106.329,288.652 106.506,288.367 106.251 C 288.275 106.170,286.040 106.008,283.400 105.893 C 280.178 105.752,279.389 105.786,281.000 105.998 M104.800 106.800 C 102.611 107.068,102.609 107.070,104.400 107.100 C 105.390 107.116,107.100 106.990,108.200 106.818 C 110.872 106.402,108.165 106.388,104.800 106.800 M291.800 106.796 C 293.885 107.144,297.456 107.312,297.167 107.048 C 297.075 106.965,295.380 106.799,293.400 106.680 C 290.748 106.520,290.327 106.551,291.800 106.796 M97.200 107.600 L 95.000 107.870 96.800 107.912 C 97.790 107.935,99.320 107.805,100.200 107.623 C 102.220 107.205,100.528 107.192,97.200 107.600 M299.800 107.610 C 301.390 107.952,305.085 108.133,304.767 107.854 C 304.675 107.774,303.160 107.608,301.400 107.487 C 299.102 107.329,298.651 107.363,299.800 107.610 M91.200 108.400 C 89.850 108.684,89.843 108.695,91.000 108.700 C 91.660 108.703,92.740 108.568,93.400 108.400 C 95.060 107.978,93.207 107.978,91.200 108.400 M306.600 108.400 C 307.260 108.568,308.340 108.706,309.000 108.707 C 310.009 108.708,309.945 108.655,308.600 108.377 C 306.574 107.958,304.937 107.977,306.600 108.400 M87.600 109.200 C 86.796 109.457,86.757 109.523,87.400 109.532 C 87.840 109.538,88.560 109.389,89.000 109.200 C 90.019 108.762,88.968 108.762,87.600 109.200 M311.000 109.200 C 311.440 109.389,312.160 109.538,312.600 109.532 C 313.243 109.523,313.204 109.457,312.400 109.200 C 311.032 108.762,309.981 108.762,311.000 109.200 M84.400 110.400 C 83.630 110.822,83.180 111.166,83.400 111.166 C 83.620 111.166,84.430 110.822,85.200 110.400 C 85.970 109.978,86.420 109.634,86.200 109.634 C 85.980 109.634,85.170 109.978,84.400 110.400 M314.800 110.400 C 315.570 110.822,316.380 111.166,316.600 111.166 C 316.820 111.166,316.370 110.822,315.600 110.400 C 314.830 109.978,314.020 109.634,313.800 109.634 C 313.580 109.634,314.030 109.978,314.800 110.400 M79.900 112.629 C 79.295 112.957,78.800 113.310,78.800 113.413 C 78.800 113.799,79.432 113.557,80.400 112.800 C 81.589 111.870,81.411 111.809,79.900 112.629 M318.800 112.118 C 318.800 112.208,320.060 113.120,321.600 114.145 C 323.140 115.169,324.400 115.922,324.400 115.818 C 324.400 115.715,323.365 114.934,322.100 114.085 C 319.299 112.202,318.800 111.905,318.800 112.118 M76.800 114.849 C 75.406 116.071,75.405 116.072,76.688 115.219 C 77.396 114.748,78.082 114.191,78.212 113.981 C 78.597 113.357,78.277 113.554,76.800 114.849 M71.833 119.242 C 70.155 121.026,68.592 122.871,68.359 123.342 C 68.126 123.814,68.438 123.570,69.053 122.800 C 69.668 122.030,71.332 120.185,72.751 118.700 C 74.170 117.215,75.230 116.000,75.107 116.000 C 74.984 116.000,73.511 117.459,71.833 119.242 M326.800 118.191 C 328.010 119.506,329.045 120.661,329.100 120.757 C 329.155 120.854,329.285 120.848,329.390 120.744 C 329.494 120.640,328.459 119.485,327.090 118.177 L 324.600 115.800 326.800 118.191 M331.508 124.146 C 334.304 128.500,334.474 128.732,333.748 127.200 C 333.022 125.668,330.077 121.200,329.793 121.200 C 329.696 121.200,330.468 122.526,331.508 124.146 M66.641 126.166 C 65.673 127.818,64.517 130.418,64.940 129.992 C 65.282 129.648,67.998 124.400,67.835 124.400 C 67.748 124.400,67.210 125.195,66.641 126.166 M63.429 133.429 C 63.281 134.015,63.238 134.572,63.332 134.666 C 63.427 134.760,63.624 134.358,63.771 133.771 C 63.919 133.185,63.962 132.628,63.868 132.534 C 63.773 132.440,63.576 132.842,63.429 133.429 M62.849 135.800 C 62.816 136.240,62.696 137.050,62.583 137.600 L 62.377 138.600 62.806 137.619 C 63.042 137.079,63.161 136.269,63.072 135.819 C 62.913 135.021,62.907 135.021,62.849 135.800 M336.868 135.800 C 336.862 136.240,337.011 136.960,337.200 137.400 C 337.638 138.419,337.638 137.368,337.200 136.000 C 336.943 135.196,336.877 135.157,336.868 135.800 M337.687 139.600 C 337.683 140.150,337.824 141.050,338.000 141.600 C 338.431 142.944,338.431 141.492,338.000 139.800 C 337.726 138.722,337.694 138.702,337.687 139.600 M62.049 139.800 C 62.016 140.240,61.896 141.050,61.783 141.600 L 61.577 142.600 62.006 141.619 C 62.242 141.079,62.361 140.269,62.272 139.819 C 62.113 139.021,62.107 139.021,62.049 139.800 M338.440 143.833 C 338.462 144.475,338.633 145.450,338.820 146.000 C 339.049 146.674,339.084 146.349,338.928 145.000 C 338.669 142.750,338.379 142.059,338.440 143.833 M61.055 145.055 C 60.913 146.086,60.874 147.008,60.969 147.102 C 61.063 147.196,61.265 146.439,61.418 145.418 C 61.571 144.398,61.610 143.476,61.504 143.371 C 61.398 143.265,61.196 144.023,61.055 145.055 M339.247 148.833 C 339.273 149.585,339.441 150.740,339.620 151.400 C 339.835 152.189,339.870 151.778,339.723 150.200 C 339.477 147.555,339.173 146.681,339.247 148.833 M60.501 149.400 C 60.505 150.280,60.587 150.593,60.683 150.095 C 60.779 149.598,60.775 148.878,60.675 148.495 C 60.575 148.113,60.496 148.520,60.501 149.400 M170.400 203.333 C 170.400 232.007,170.511 255.578,170.647 255.714 C 170.872 255.938,176.450 252.446,177.400 251.487 C 178.001 250.880,176.999 251.474,173.700 253.683 L 170.800 255.624 170.800 203.569 C 170.800 156.688,170.862 151.538,171.421 151.753 C 171.777 151.889,171.937 151.822,171.797 151.595 C 170.409 149.349,170.400 149.686,170.400 203.333 M340.030 154.833 C 340.046 155.805,340.212 157.410,340.398 158.400 C 340.643 159.708,340.676 159.270,340.517 156.800 C 340.281 153.148,339.981 151.936,340.030 154.833 M59.672 155.044 C 59.632 155.948,59.515 157.568,59.410 158.644 L 59.220 160.600 59.617 158.800 C 59.836 157.810,59.954 156.190,59.879 155.200 L 59.744 153.400 59.672 155.044 M174.800 153.710 C 175.016 153.947,181.813 158.423,182.800 158.979 C 183.203 159.206,183.269 159.185,183.000 158.913 C 182.093 157.997,174.058 152.898,174.800 153.710 M186.000 160.946 C 186.000 161.093,189.511 163.396,193.540 165.890 C 195.693 167.224,193.703 165.645,190.800 163.716 C 187.586 161.582,186.000 160.666,186.000 160.946 M340.937 163.800 C 340.939 165.560,341.009 166.230,341.093 165.289 C 341.178 164.349,341.177 162.909,341.091 162.089 C 341.005 161.270,340.936 162.040,340.937 163.800 M58.636 166.738 C 58.475 169.674,58.427 172.161,58.530 172.263 C 58.783 172.516,59.339 162.616,59.110 161.938 C 59.010 161.642,58.797 163.802,58.636 166.738 M341.324 169.400 C 341.326 170.720,341.401 171.212,341.490 170.493 C 341.579 169.774,341.577 168.694,341.486 168.093 C 341.395 167.492,341.322 168.080,341.324 169.400 M197.400 168.282 C 197.758 168.650,206.108 174.130,207.600 174.977 C 209.195 175.882,207.057 174.280,203.800 172.129 C 199.650 169.389,196.822 167.689,197.400 168.282 M341.780 188.000 C 341.780 195.590,341.834 198.695,341.899 194.900 C 341.965 191.105,341.965 184.895,341.899 181.100 C 341.834 177.305,341.780 180.410,341.780 188.000 M58.190 203.200 C 58.190 218.930,58.239 225.365,58.300 217.500 C 58.360 209.635,58.360 196.765,58.300 188.900 C 58.239 181.035,58.190 187.470,58.190 203.200 M208.600 175.482 C 208.958 175.850,217.308 181.330,218.800 182.177 C 220.395 183.082,218.257 181.480,215.000 179.329 C 210.850 176.589,208.022 174.889,208.600 175.482 M222.000 184.110 C 222.216 184.347,229.013 188.823,230.000 189.379 C 230.403 189.606,230.469 189.585,230.200 189.313 C 229.293 188.397,221.258 183.298,222.000 184.110 M233.400 191.482 C 233.758 191.850,242.108 197.330,243.600 198.177 C 245.195 199.082,243.057 197.480,239.800 195.329 C 235.650 192.589,232.822 190.889,233.400 191.482 M244.400 198.532 C 244.400 198.640,246.040 199.763,248.045 201.028 L 251.690 203.328 250.745 204.091 C 249.868 204.799,249.863 204.823,250.678 204.425 C 252.213 203.674,252.073 203.279,249.710 201.696 C 246.533 199.568,244.400 198.297,244.400 198.532 M244.297 208.146 C 239.221 211.455,237.146 212.998,240.200 211.193 C 242.161 210.035,248.857 205.624,249.380 205.147 C 250.296 204.311,249.074 205.032,244.297 208.146 M341.777 221.000 C 341.777 227.380,341.832 229.934,341.899 226.676 C 341.967 223.417,341.966 218.197,341.899 215.076 C 341.831 211.954,341.776 214.620,341.777 221.000 M231.800 216.240 C 227.612 218.992,226.728 219.655,228.400 218.792 C 229.494 218.228,235.170 214.500,235.780 213.945 C 236.684 213.124,235.543 213.782,231.800 216.240 M220.600 223.440 C 216.412 226.192,215.528 226.855,217.200 225.992 C 218.294 225.428,223.970 221.700,224.580 221.145 C 225.484 220.324,224.343 220.982,220.600 223.440 M208.297 231.346 C 203.221 234.655,201.146 236.198,204.200 234.393 C 206.161 233.235,212.857 228.824,213.380 228.347 C 214.296 227.511,213.074 228.232,208.297 231.346 M58.691 239.600 C 58.805 242.570,58.966 245.075,59.049 245.167 C 59.295 245.439,59.125 240.023,58.792 237.000 C 58.586 235.126,58.553 235.985,58.691 239.600 M341.324 237.000 C 341.326 238.320,341.401 238.812,341.490 238.093 C 341.579 237.374,341.577 236.294,341.486 235.693 C 341.395 235.092,341.322 235.680,341.324 237.000 M197.097 238.546 C 192.021 241.855,189.946 243.398,193.000 241.593 C 194.961 240.435,201.657 236.024,202.180 235.547 C 203.096 234.711,201.874 235.432,197.097 238.546 M340.934 242.400 C 340.934 244.050,341.005 244.725,341.091 243.900 C 341.178 243.075,341.178 241.725,341.091 240.900 C 341.005 240.075,340.934 240.750,340.934 242.400 M184.600 246.640 C 180.412 249.392,179.528 250.055,181.200 249.192 C 182.294 248.628,187.970 244.900,188.580 244.345 C 189.484 243.524,188.343 244.182,184.600 246.640 M59.492 249.600 C 59.612 251.470,59.775 253.075,59.855 253.167 C 60.135 253.488,59.950 249.384,59.614 247.800 C 59.377 246.683,59.340 247.227,59.492 249.600 M340.268 248.159 C 340.120 249.233,340.024 250.852,340.053 251.756 C 340.086 252.779,340.235 252.192,340.448 250.200 C 340.827 246.650,340.689 245.087,340.268 248.159 M60.288 256.200 C 60.411 257.520,60.576 258.675,60.656 258.767 C 60.935 259.089,60.716 255.788,60.393 254.800 C 60.189 254.179,60.149 254.709,60.288 256.200 M339.453 255.236 C 339.314 255.931,339.222 257.063,339.249 257.750 C 339.278 258.494,339.438 258.040,339.643 256.628 C 340.011 254.104,339.876 253.118,339.453 255.236 M338.600 261.200 C 338.445 262.328,338.402 263.336,338.506 263.439 C 338.609 263.542,338.816 262.700,338.967 261.567 C 339.117 260.434,339.159 259.426,339.061 259.328 C 338.963 259.229,338.755 260.072,338.600 261.200 M61.072 261.400 C 61.199 262.500,61.369 263.475,61.451 263.567 C 61.732 263.882,61.520 261.399,61.180 260.400 C 60.951 259.726,60.916 260.051,61.072 261.400 M61.873 265.600 C 62.004 266.590,62.176 267.475,62.256 267.567 C 62.557 267.914,62.328 265.364,61.990 264.600 C 61.753 264.066,61.714 264.398,61.873 265.600 M337.856 264.884 C 337.721 265.388,337.628 266.250,337.649 266.800 C 337.672 267.389,337.831 267.071,338.036 266.025 C 338.403 264.152,338.273 263.327,337.856 264.884 M62.662 269.400 C 62.796 270.280,62.972 271.075,63.053 271.167 C 63.356 271.510,63.129 269.368,62.781 268.600 C 62.529 268.042,62.493 268.285,62.662 269.400 M337.022 269.422 C 336.872 270.225,336.828 270.962,336.926 271.060 C 337.024 271.157,337.227 270.581,337.378 269.778 C 337.528 268.975,337.572 268.238,337.474 268.140 C 337.376 268.043,337.173 268.619,337.022 269.422 M335.857 273.657 C 335.463 274.766,335.210 275.743,335.295 275.828 C 335.379 275.913,335.774 275.077,336.171 273.971 C 336.569 272.866,336.822 271.889,336.734 271.801 C 336.646 271.712,336.251 272.548,335.857 273.657 M64.028 274.092 C 63.982 274.565,65.286 277.648,65.458 277.475 C 65.545 277.388,65.266 276.525,64.837 275.558 C 64.408 274.591,64.044 273.931,64.028 274.092 M334.229 277.661 C 333.883 278.355,333.600 279.025,333.600 279.150 C 333.600 279.497,334.633 277.894,334.921 277.100 C 335.336 275.955,334.906 276.304,334.229 277.661 M67.000 280.800 C 67.341 281.460,67.711 282.000,67.821 282.000 C 67.931 282.000,67.741 281.460,67.400 280.800 C 67.059 280.140,66.689 279.600,66.579 279.600 C 66.469 279.600,66.659 280.140,67.000 280.800 M332.600 280.800 C 332.259 281.460,332.069 282.000,332.179 282.000 C 332.289 282.000,332.659 281.460,333.000 280.800 C 333.341 280.140,333.531 279.600,333.421 279.600 C 333.311 279.600,332.941 280.140,332.600 280.800 M69.191 284.030 C 69.875 285.036,71.547 286.926,72.906 288.230 L 75.378 290.600 72.786 287.800 C 71.360 286.260,69.689 284.370,69.071 283.600 C 68.098 282.387,68.114 282.444,69.191 284.030 M330.575 283.868 C 329.959 284.676,329.659 285.211,329.909 285.056 C 330.421 284.740,332.153 282.400,331.875 282.400 C 331.776 282.400,331.191 283.061,330.575 283.868 M326.987 288.100 L 324.600 290.600 327.100 288.213 C 328.475 286.899,329.600 285.774,329.600 285.713 C 329.600 285.417,329.205 285.778,326.987 288.100 M75.600 290.525 C 75.600 290.624,76.261 291.209,77.068 291.825 C 77.876 292.441,78.411 292.741,78.256 292.491 C 77.940 291.979,75.600 290.247,75.600 290.525 M321.690 292.166 C 319.254 293.836,317.981 294.873,319.200 294.194 C 320.475 293.485,324.400 290.761,324.400 290.585 C 324.400 290.310,324.398 290.311,321.690 292.166 M78.800 292.990 C 78.800 293.094,79.385 293.465,80.100 293.814 L 81.400 294.448 80.400 293.633 C 79.437 292.848,78.800 292.592,78.800 292.990 M316.600 295.086 C 315.940 295.446,314.230 296.161,312.800 296.674 C 311.317 297.206,310.801 297.500,311.600 297.358 C 313.001 297.109,318.954 294.486,318.200 294.451 C 317.980 294.440,317.260 294.726,316.600 295.086 M84.400 296.000 C 85.170 296.422,85.980 296.766,86.200 296.766 C 86.420 296.766,85.970 296.422,85.200 296.000 C 84.430 295.578,83.620 295.234,83.400 295.234 C 83.180 295.234,83.630 295.578,84.400 296.000 M87.600 297.200 C 88.968 297.638,90.019 297.638,89.000 297.200 C 88.560 297.011,87.840 296.862,87.400 296.868 C 86.757 296.877,86.796 296.943,87.600 297.200 M91.400 298.023 C 93.426 298.442,95.063 298.423,93.400 298.000 C 92.740 297.832,91.660 297.694,91.000 297.693 C 89.991 297.692,90.055 297.745,91.400 298.023 M306.600 298.000 C 304.937 298.423,306.574 298.442,308.600 298.023 C 309.945 297.745,310.009 297.692,309.000 297.693 C 308.340 297.694,307.260 297.832,306.600 298.000 M96.707 298.690 C 97.426 298.779,98.506 298.777,99.107 298.686 C 99.708 298.595,99.120 298.522,97.800 298.524 C 96.480 298.526,95.988 298.601,96.707 298.690 M299.200 298.809 C 298.394 298.983,299.244 299.023,301.200 298.901 C 303.070 298.785,304.675 298.625,304.767 298.545 C 305.064 298.287,300.642 298.496,299.200 298.809 M101.105 299.083 C 101.602 299.179,102.322 299.175,102.705 299.075 C 103.087 298.975,102.680 298.896,101.800 298.901 C 100.920 298.905,100.607 298.987,101.105 299.083 M105.500 299.489 C 106.215 299.578,107.385 299.578,108.100 299.489 C 108.815 299.401,108.230 299.328,106.800 299.328 C 105.370 299.328,104.785 299.401,105.500 299.489 M293.100 299.489 C 293.815 299.578,294.985 299.578,295.700 299.489 C 296.415 299.401,295.830 299.328,294.400 299.328 C 292.970 299.328,292.385 299.401,293.100 299.489 M110.300 299.882 C 110.795 299.978,111.605 299.978,112.100 299.882 C 112.595 299.787,112.190 299.709,111.200 299.709 C 110.210 299.709,109.805 299.787,110.300 299.882 M288.905 299.887 C 289.514 299.979,290.414 299.977,290.905 299.882 C 291.397 299.787,290.900 299.711,289.800 299.714 C 288.700 299.717,288.297 299.795,288.905 299.887 M114.033 300.147 C 114.125 300.228,116.450 300.388,119.200 300.503 C 122.472 300.640,123.371 300.604,121.800 300.400 C 119.291 300.073,113.745 299.893,114.033 300.147 M278.000 300.412 C 276.790 300.567,278.140 300.604,281.000 300.493 C 283.860 300.383,286.275 300.227,286.367 300.146 C 286.638 299.908,280.384 300.107,278.000 300.412 M130.000 301.218 C 132.310 301.374,135.820 301.493,137.800 301.482 L 141.400 301.462 136.800 301.183 C 134.270 301.030,130.760 300.912,129.000 300.920 C 125.876 300.934,125.900 300.941,130.000 301.218 M267.700 301.096 C 268.965 301.175,271.035 301.175,272.300 301.096 C 273.565 301.016,272.530 300.951,270.000 300.951 C 267.470 300.951,266.435 301.016,267.700 301.096 M259.700 301.494 C 260.745 301.576,262.455 301.576,263.500 301.494 C 264.545 301.412,263.690 301.344,261.600 301.344 C 259.510 301.344,258.655 301.412,259.700 301.494 M151.300 301.899 C 154.985 301.965,161.015 301.965,164.700 301.899 C 168.385 301.833,165.370 301.779,158.000 301.779 C 150.630 301.779,147.615 301.833,151.300 301.899 M241.323 301.899 C 243.920 301.969,248.060 301.968,250.523 301.898 C 252.985 301.828,250.860 301.771,245.800 301.772 C 240.740 301.772,238.725 301.829,241.323 301.899 M187.700 302.300 C 196.665 302.360,211.335 302.360,220.300 302.300 C 229.265 302.240,221.930 302.191,204.000 302.191 C 186.070 302.191,178.735 302.240,187.700 302.300 M399.505 342.400 C 399.023 344.040,399.145 346.866,399.644 345.614 C 399.861 345.072,399.984 343.902,399.919 343.014 C 399.815 341.606,399.762 341.528,399.505 342.400 M0.034 343.400 C 0.067 345.810,0.738 347.093,0.766 344.800 C 0.778 343.810,0.613 342.730,0.400 342.400 C 0.116 341.960,0.018 342.226,0.034 343.400 M0.901 348.200 C 0.905 349.080,0.987 349.393,1.083 348.895 C 1.179 348.398,1.175 347.678,1.075 347.295 C 0.975 346.913,0.896 347.320,0.901 348.200 M398.860 347.650 C 398.827 348.228,398.711 349.308,398.601 350.050 L 398.403 351.400 398.824 350.057 C 399.055 349.319,399.172 348.239,399.082 347.657 L 398.920 346.600 398.860 347.650 M1.606 352.433 C 1.609 352.965,1.789 353.670,2.006 354.000 C 2.282 354.422,2.323 354.185,2.142 353.200 C 1.825 351.475,1.598 351.149,1.606 352.433 M398.054 352.267 C 398.025 352.744,397.896 353.464,397.770 353.867 C 397.552 354.561,397.564 354.562,397.996 353.888 C 398.247 353.497,398.375 352.777,398.281 352.288 C 398.109 351.401,398.109 351.401,398.054 352.267 M2.457 355.400 C 2.461 356.234,3.521 359.300,3.563 358.600 C 3.577 358.380,3.333 357.390,3.021 356.400 C 2.709 355.410,2.455 354.960,2.457 355.400 M396.725 357.096 C 396.354 358.355,396.111 359.444,396.185 359.518 C 396.399 359.733,397.679 355.637,397.533 355.203 C 397.460 354.986,397.096 355.838,396.725 357.096 M4.000 360.284 C 4.000 360.851,5.163 363.600,5.402 363.600 C 5.507 363.600,5.296 362.835,4.932 361.900 C 4.195 360.007,4.000 359.669,4.000 360.284 M395.113 361.781 C 394.742 362.781,394.517 363.600,394.614 363.600 C 394.893 363.600,396.031 360.694,395.903 360.309 C 395.839 360.118,395.484 360.780,395.113 361.781 M5.600 364.143 C 5.600 364.594,8.280 369.731,8.969 370.600 C 9.317 371.040,8.762 369.780,7.736 367.800 C 5.747 363.963,5.600 363.712,5.600 364.143 M392.304 367.734 C 391.261 369.750,390.691 371.040,391.037 370.600 C 391.801 369.627,394.501 364.368,394.326 364.193 C 394.257 364.125,393.347 365.718,392.304 367.734 M11.991 375.188 C 12.457 375.841,13.042 376.502,13.291 376.656 C 13.541 376.811,13.241 376.276,12.625 375.468 C 11.288 373.715,10.784 373.492,11.991 375.188 M387.147 375.700 C 384.360 379.287,381.157 382.684,378.568 384.800 C 377.087 386.010,375.408 387.422,374.837 387.937 L 373.800 388.873 375.000 388.077 C 378.900 385.488,390.066 374.000,388.683 374.000 C 388.564 374.000,387.873 374.765,387.147 375.700 M15.513 379.441 C 17.948 382.321,26.000 389.407,26.000 388.670 C 26.000 388.562,24.785 387.530,23.300 386.377 C 21.815 385.225,18.991 382.643,17.024 380.641 C 14.387 377.956,13.991 377.641,15.513 379.441 M29.400 391.028 C 30.374 391.802,34.030 393.703,34.205 393.527 C 34.274 393.457,33.041 392.723,31.465 391.896 C 29.889 391.069,28.960 390.678,29.400 391.028 M369.900 391.029 C 368.405 391.840,368.496 392.178,370.000 391.400 C 370.660 391.059,371.200 390.694,371.200 390.590 C 371.200 390.332,371.157 390.347,369.900 391.029 M366.800 392.800 C 366.030 393.222,365.544 393.574,365.720 393.583 C 366.144 393.605,368.400 392.432,368.400 392.190 C 368.400 391.928,368.377 391.937,366.800 392.800 M36.400 394.614 C 36.400 394.893,39.306 396.031,39.691 395.903 C 39.882 395.839,39.220 395.484,38.219 395.113 C 37.219 394.742,36.400 394.517,36.400 394.614 M361.600 395.200 C 360.610 395.615,360.003 395.965,360.251 395.978 C 360.818 396.006,363.600 394.857,363.600 394.595 C 363.600 394.348,363.712 394.314,361.600 395.200 M43.200 397.182 C 43.530 397.405,44.145 397.591,44.567 397.594 C 45.590 397.602,45.271 397.373,43.800 397.044 C 42.924 396.848,42.762 396.885,43.200 397.182 M355.600 397.200 C 354.776 397.464,354.741 397.526,355.400 397.554 C 355.840 397.573,356.470 397.413,356.800 397.200 C 357.501 396.747,357.014 396.747,355.600 397.200 M46.000 397.982 C 46.330 398.205,46.945 398.391,47.367 398.394 C 48.390 398.402,48.071 398.173,46.600 397.844 C 45.724 397.648,45.562 397.685,46.000 397.982 M352.800 398.000 C 351.976 398.264,351.941 398.326,352.600 398.354 C 353.040 398.373,353.670 398.213,354.000 398.000 C 354.701 397.547,354.214 397.547,352.800 398.000 M51.100 399.082 C 51.595 399.178,52.405 399.178,52.900 399.082 C 53.395 398.987,52.990 398.909,52.000 398.909 C 51.010 398.909,50.605 398.987,51.100 399.082 M347.100 399.082 C 347.595 399.178,348.405 399.178,348.900 399.082 C 349.395 398.987,348.990 398.909,348.000 398.909 C 347.010 398.909,346.605 398.987,347.100 399.082 M55.000 399.600 C 56.165 400.100,59.174 400.100,58.400 399.600 C 58.070 399.387,56.990 399.222,56.000 399.234 C 54.630 399.251,54.391 399.338,55.000 399.600 M341.600 399.600 C 340.826 400.100,343.835 400.100,345.000 399.600 C 345.609 399.338,345.370 399.251,344.000 399.234 C 343.010 399.222,341.930 399.387,341.600 399.600 " stroke="none" fill="#5485c8" fill-rule="evenodd"></path><path id="path3" d="M52.400 0.400 L 51.400 0.720 52.400 0.732 C 52.950 0.738,53.760 0.589,54.200 0.400 L 55.000 0.056 54.200 0.068 C 53.760 0.074,52.950 0.224,52.400 0.400 M345.800 0.400 C 346.240 0.589,347.050 0.738,347.600 0.732 L 348.600 0.720 347.600 0.400 C 347.050 0.224,346.240 0.074,345.800 0.068 L 345.000 0.056 345.800 0.400 M47.000 1.219 C 46.442 1.471,46.685 1.507,47.800 1.338 C 48.680 1.204,49.475 1.028,49.567 0.947 C 49.910 0.644,47.768 0.871,47.000 1.219 M350.433 0.947 C 350.525 1.028,351.320 1.204,352.200 1.338 C 353.315 1.507,353.558 1.471,353.000 1.219 C 352.232 0.871,350.090 0.644,350.433 0.947 M30.100 8.046 C 28.737 8.919,28.295 9.506,29.500 8.843 C 30.418 8.339,31.856 7.227,31.600 7.219 C 31.490 7.216,30.815 7.588,30.100 8.046 M369.000 7.807 C 369.440 8.166,370.160 8.635,370.600 8.851 L 371.400 9.244 370.600 8.593 C 370.160 8.234,369.440 7.765,369.000 7.549 L 368.200 7.156 369.000 7.807 M23.600 12.449 C 22.206 13.671,22.205 13.672,23.488 12.819 C 24.196 12.348,24.882 11.791,25.012 11.581 C 25.397 10.957,25.077 11.154,23.600 12.449 M374.944 11.509 C 375.260 12.021,377.600 13.753,377.600 13.475 C 377.600 13.376,376.939 12.791,376.132 12.175 C 375.324 11.559,374.789 11.259,374.944 11.509 M19.785 15.700 L 17.800 17.800 19.900 15.815 C 21.055 14.723,22.000 13.778,22.000 13.715 C 22.000 13.417,21.629 13.749,19.785 15.700 M379.800 15.600 C 380.883 16.700,381.860 17.600,381.970 17.600 C 382.080 17.600,381.283 16.700,380.200 15.600 C 379.117 14.500,378.140 13.600,378.030 13.600 C 377.920 13.600,378.717 14.500,379.800 15.600 M15.781 19.700 L 14.200 21.400 15.900 19.819 C 17.481 18.348,17.784 18.000,17.481 18.000 C 17.416 18.000,16.651 18.765,15.781 19.700 M384.589 20.500 C 385.883 21.985,387.017 23.200,387.108 23.200 C 387.373 23.200,384.183 19.481,383.162 18.600 C 382.653 18.160,383.295 19.015,384.589 20.500 M11.944 24.300 C 10.793 25.689,10.306 26.400,10.504 26.400 C 10.614 26.400,11.186 25.770,11.773 25.000 C 12.863 23.571,12.995 23.032,11.944 24.300 M388.175 24.932 C 388.791 25.739,389.376 26.400,389.475 26.400 C 389.753 26.400,388.021 24.060,387.509 23.744 C 387.259 23.589,387.559 24.124,388.175 24.932 M390.924 29.000 C 391.262 29.660,391.838 30.560,392.204 31.000 C 392.570 31.440,392.465 31.080,391.970 30.200 C 390.880 28.258,390.064 27.322,390.924 29.000 M7.853 30.500 L 7.133 31.800 7.958 30.800 C 8.689 29.913,9.014 29.200,8.686 29.200 C 8.624 29.200,8.249 29.785,7.853 30.500 M1.029 48.229 C 0.881 48.815,0.838 49.372,0.932 49.466 C 1.027 49.560,1.224 49.158,1.371 48.571 C 1.519 47.985,1.562 47.428,1.468 47.334 C 1.373 47.240,1.176 47.642,1.029 48.229 M398.456 47.600 C 398.456 47.930,398.611 48.560,398.800 49.000 C 399.017 49.504,399.144 49.578,399.144 49.200 C 399.144 48.870,398.989 48.240,398.800 47.800 C 398.583 47.296,398.456 47.222,398.456 47.600 M0.449 51.600 C 0.416 51.930,0.289 52.650,0.167 53.200 C -0.025 54.064,0.007 54.103,0.399 53.488 C 0.648 53.097,0.775 52.377,0.681 51.888 C 0.586 51.400,0.482 51.270,0.449 51.600 M399.246 52.000 C 399.227 52.550,399.387 53.270,399.600 53.600 C 400.094 54.364,400.094 53.542,399.600 52.000 L 399.280 51.000 399.246 52.000 M182.100 104.700 C 191.945 104.759,208.055 104.759,217.900 104.700 C 227.745 104.640,219.690 104.592,200.000 104.592 C 180.310 104.592,172.255 104.640,182.100 104.700 M137.800 105.200 L 134.600 105.453 137.200 105.487 C 138.630 105.505,141.330 105.386,143.200 105.222 L 146.600 104.924 143.800 104.935 C 142.260 104.942,139.560 105.061,137.800 105.200 M256.800 105.222 C 258.670 105.386,261.370 105.510,262.800 105.497 C 265.192 105.475,265.112 105.450,261.800 105.179 C 259.820 105.017,257.120 104.894,255.800 104.904 C 253.678 104.922,253.793 104.958,256.800 105.222 M124.500 105.891 C 125.325 105.978,126.675 105.978,127.500 105.891 C 128.325 105.805,127.650 105.734,126.000 105.734 C 124.350 105.734,123.675 105.805,124.500 105.891 M272.500 105.891 C 273.325 105.978,274.675 105.978,275.500 105.891 C 276.325 105.805,275.650 105.734,274.000 105.734 C 272.350 105.734,271.675 105.805,272.500 105.891 M119.507 106.290 C 120.226 106.379,121.306 106.377,121.907 106.286 C 122.508 106.195,121.920 106.122,120.600 106.124 C 119.280 106.126,118.788 106.201,119.507 106.290 M278.307 106.290 C 279.026 106.379,280.106 106.377,280.707 106.286 C 281.308 106.195,280.720 106.122,279.400 106.124 C 278.080 106.126,277.588 106.201,278.307 106.290 M112.300 106.682 C 112.795 106.778,113.605 106.778,114.100 106.682 C 114.595 106.587,114.190 106.509,113.200 106.509 C 112.210 106.509,111.805 106.587,112.300 106.682 M285.900 106.682 C 286.395 106.778,287.205 106.778,287.700 106.682 C 288.195 106.587,287.790 106.509,286.800 106.509 C 285.810 106.509,285.405 106.587,285.900 106.682 M108.700 107.082 C 109.195 107.178,110.005 107.178,110.500 107.082 C 110.995 106.987,110.590 106.909,109.600 106.909 C 108.610 106.909,108.205 106.987,108.700 107.082 M289.500 107.082 C 289.995 107.178,290.805 107.178,291.300 107.082 C 291.795 106.987,291.390 106.909,290.400 106.909 C 289.410 106.909,289.005 106.987,289.500 107.082 M103.300 107.476 C 103.685 107.576,104.315 107.576,104.700 107.476 C 105.085 107.375,104.770 107.293,104.000 107.293 C 103.230 107.293,102.915 107.375,103.300 107.476 M295.300 107.476 C 295.685 107.576,296.315 107.576,296.700 107.476 C 297.085 107.375,296.770 107.293,296.000 107.293 C 295.230 107.293,294.915 107.375,295.300 107.476 M100.500 107.876 C 100.885 107.976,101.515 107.976,101.900 107.876 C 102.285 107.775,101.970 107.693,101.200 107.693 C 100.430 107.693,100.115 107.775,100.500 107.876 M298.100 107.876 C 298.485 107.976,299.115 107.976,299.500 107.876 C 299.885 107.775,299.570 107.693,298.800 107.693 C 298.030 107.693,297.715 107.775,298.100 107.876 M94.000 108.400 C 92.938 108.624,92.841 108.702,93.600 108.724 C 94.150 108.741,95.320 108.605,96.200 108.423 C 97.534 108.147,97.600 108.093,96.600 108.099 C 95.940 108.102,94.770 108.238,94.000 108.400 M302.900 108.276 C 303.285 108.376,303.915 108.376,304.300 108.276 C 304.685 108.175,304.370 108.093,303.600 108.093 C 302.830 108.093,302.515 108.175,302.900 108.276 M89.400 109.200 C 88.896 109.417,88.822 109.544,89.200 109.544 C 89.530 109.544,90.160 109.389,90.600 109.200 C 91.104 108.983,91.178 108.856,90.800 108.856 C 90.470 108.856,89.840 109.011,89.400 109.200 M309.400 109.200 C 309.840 109.389,310.470 109.544,310.800 109.544 C 311.178 109.544,311.104 109.417,310.600 109.200 C 310.160 109.011,309.530 108.856,309.200 108.856 C 308.822 108.856,308.896 108.983,309.400 109.200 M82.300 111.829 C 80.749 112.670,80.925 112.961,82.500 112.159 C 84.008 111.393,84.275 111.194,83.767 111.216 C 83.565 111.225,82.905 111.501,82.300 111.829 M319.600 113.220 C 320.987 114.161,321.778 114.435,320.800 113.636 C 320.250 113.186,319.620 112.817,319.400 112.815 C 319.180 112.813,319.270 112.996,319.600 113.220 M76.385 115.629 L 75.000 116.858 76.500 115.781 C 77.826 114.830,78.257 114.400,77.885 114.400 C 77.822 114.400,77.147 114.953,76.385 115.629 M322.144 114.709 C 322.460 115.221,324.800 116.953,324.800 116.675 C 324.800 116.576,324.139 115.991,323.332 115.375 C 322.524 114.759,321.989 114.459,322.144 114.709 M73.178 118.300 L 71.800 119.800 73.300 118.422 C 74.696 117.138,74.984 116.800,74.678 116.800 C 74.612 116.800,73.937 117.475,73.178 118.300 M329.465 121.800 C 331.131 123.794,331.713 124.214,330.433 122.500 C 328.884 120.424,328.511 120.000,328.236 120.000 C 328.084 120.000,328.637 120.810,329.465 121.800 M331.560 124.600 C 332.234 125.905,332.788 126.628,332.785 126.200 C 332.783 125.980,332.414 125.350,331.964 124.800 C 331.421 124.136,331.285 124.069,331.560 124.600 M333.478 128.195 C 333.844 128.962,334.214 129.519,334.301 129.432 C 334.484 129.249,333.270 126.800,332.996 126.800 C 332.895 126.800,333.112 127.428,333.478 128.195 M63.429 135.029 C 63.281 135.615,63.238 136.172,63.332 136.266 C 63.427 136.360,63.624 135.958,63.771 135.371 C 63.919 134.785,63.962 134.228,63.868 134.134 C 63.773 134.040,63.576 134.442,63.429 135.029 M336.868 137.800 C 336.862 138.240,337.011 138.960,337.200 139.400 C 337.638 140.419,337.638 139.368,337.200 138.000 C 336.943 137.196,336.877 137.157,336.868 137.800 M337.668 141.800 C 337.662 142.240,337.811 142.960,338.000 143.400 C 338.438 144.419,338.438 143.368,338.000 142.000 C 337.743 141.196,337.677 141.157,337.668 141.800 M61.850 142.850 C 61.517 144.517,61.840 144.840,62.200 143.200 C 62.352 142.509,62.393 141.859,62.291 141.758 C 62.189 141.656,61.991 142.147,61.850 142.850 M338.487 146.400 C 338.483 146.950,338.624 147.850,338.800 148.400 C 339.231 149.744,339.231 148.292,338.800 146.600 C 338.526 145.522,338.494 145.502,338.487 146.400 M61.000 148.000 C 60.846 148.910,60.804 149.738,60.907 149.840 C 61.010 149.943,61.213 149.277,61.360 148.360 C 61.507 147.443,61.548 146.615,61.453 146.520 C 61.358 146.424,61.154 147.090,61.000 148.000 M170.185 150.900 C 170.080 151.175,170.041 174.980,170.099 203.800 L 170.203 256.200 170.301 203.457 C 170.390 155.981,170.462 150.738,171.021 150.953 C 171.377 151.089,171.537 151.022,171.397 150.795 C 171.057 150.246,170.412 150.301,170.185 150.900 M60.185 153.785 C 60.030 155.023,59.990 156.123,60.095 156.229 C 60.201 156.334,60.407 155.401,60.554 154.154 C 60.700 152.907,60.741 151.807,60.643 151.710 C 60.546 151.612,60.339 152.546,60.185 153.785 M339.693 154.400 C 339.693 155.170,339.775 155.485,339.876 155.100 C 339.976 154.715,339.976 154.085,339.876 153.700 C 339.775 153.315,339.693 153.630,339.693 154.400 M176.800 154.520 C 176.800 154.724,180.619 157.272,182.000 157.989 C 183.543 158.790,182.793 158.173,180.175 156.488 C 176.988 154.436,176.800 154.327,176.800 154.520 M340.281 161.200 C 340.404 162.850,340.571 164.275,340.652 164.367 C 340.931 164.681,340.754 161.401,340.406 159.800 C 340.148 158.614,340.116 158.976,340.281 161.200 M59.693 160.000 C 59.693 160.770,59.775 161.085,59.876 160.700 C 59.976 160.315,59.976 159.685,59.876 159.300 C 59.775 158.915,59.693 159.230,59.693 160.000 M59.314 163.400 C 59.317 164.500,59.395 164.903,59.487 164.295 C 59.579 163.686,59.577 162.786,59.482 162.295 C 59.387 161.803,59.311 162.300,59.314 163.400 M191.000 163.796 C 191.894 164.539,194.428 165.909,193.800 165.310 C 193.580 165.100,192.680 164.524,191.800 164.030 C 190.920 163.535,190.560 163.430,191.000 163.796 M341.101 175.200 C 341.214 179.050,341.372 182.275,341.453 182.367 C 341.706 182.653,341.536 175.163,341.208 171.600 C 340.999 169.323,340.964 170.513,341.101 175.200 M58.934 171.600 C 58.934 173.250,59.005 173.925,59.091 173.100 C 59.178 172.275,59.178 170.925,59.091 170.100 C 59.005 169.275,58.934 169.950,58.934 171.600 M201.600 170.520 C 201.600 170.724,205.419 173.272,206.800 173.989 C 208.343 174.790,207.593 174.173,204.975 172.488 C 201.788 170.436,201.600 170.327,201.600 170.520 M58.546 178.600 C 58.547 180.800,58.614 181.649,58.695 180.487 C 58.776 179.324,58.776 177.524,58.693 176.487 C 58.611 175.449,58.545 176.400,58.546 178.600 M212.800 177.720 C 212.800 177.924,216.619 180.472,218.000 181.189 C 219.543 181.990,218.793 181.373,216.175 179.688 C 212.988 177.636,212.800 177.527,212.800 177.720 M224.000 184.920 C 224.000 185.124,227.819 187.672,229.200 188.389 C 230.743 189.190,229.993 188.573,227.375 186.888 C 224.188 184.836,224.000 184.727,224.000 184.920 M237.600 193.698 C 237.600 193.803,238.725 194.606,240.100 195.482 C 243.198 197.456,243.600 197.687,243.600 197.491 C 243.600 197.356,242.433 196.575,238.500 194.079 C 238.005 193.765,237.600 193.594,237.600 193.698 M249.600 201.481 C 250.150 201.877,251.005 202.597,251.500 203.082 C 251.995 203.567,252.400 203.801,252.400 203.602 C 252.400 203.234,250.289 201.544,249.200 201.040 C 248.870 200.888,249.050 201.086,249.600 201.481 M246.380 207.253 C 243.859 208.868,242.017 210.335,244.000 209.148 C 246.155 207.858,249.200 205.858,249.200 205.733 C 249.200 205.473,248.929 205.619,246.380 207.253 M233.700 215.426 C 232.765 215.987,232.000 216.540,232.000 216.655 C 232.000 216.871,234.699 215.338,235.380 214.736 C 236.067 214.128,235.427 214.391,233.700 215.426 M221.562 223.241 C 219.208 224.749,217.306 226.221,218.800 225.379 C 219.715 224.864,224.124 222.009,224.342 221.791 C 224.908 221.225,223.837 221.784,221.562 223.241 M58.551 227.600 C 58.551 230.130,58.616 231.165,58.696 229.900 C 58.775 228.635,58.775 226.565,58.696 225.300 C 58.616 224.035,58.551 225.070,58.551 227.600 M341.346 228.600 C 341.347 230.800,341.414 231.649,341.495 230.487 C 341.576 229.324,341.576 227.524,341.493 226.487 C 341.411 225.449,341.345 226.400,341.346 228.600 M210.362 230.441 C 208.008 231.949,206.106 233.421,207.600 232.579 C 208.515 232.064,212.924 229.209,213.142 228.991 C 213.708 228.425,212.637 228.984,210.362 230.441 M58.934 235.200 C 58.934 236.850,59.005 237.525,59.091 236.700 C 59.178 235.875,59.178 234.525,59.091 233.700 C 59.005 232.875,58.934 233.550,58.934 235.200 M340.931 235.400 C 340.933 236.940,341.005 237.521,341.092 236.691 C 341.179 235.861,341.177 234.601,341.089 233.891 C 341.000 233.181,340.929 233.860,340.931 235.400 M199.180 237.653 C 196.659 239.268,194.817 240.735,196.800 239.548 C 198.955 238.258,202.000 236.258,202.000 236.133 C 202.000 235.873,201.729 236.019,199.180 237.653 M59.223 243.433 C 59.236 244.295,59.403 245.720,59.594 246.600 C 59.852 247.786,59.884 247.424,59.719 245.200 C 59.477 241.947,59.186 240.910,59.223 243.433 M340.258 244.759 C 340.107 246.386,340.061 247.795,340.157 247.890 C 340.406 248.139,340.921 242.963,340.710 242.330 C 340.613 242.039,340.410 243.132,340.258 244.759 M186.500 245.826 C 185.565 246.387,184.800 246.940,184.800 247.055 C 184.800 247.271,187.499 245.738,188.180 245.136 C 188.867 244.528,188.227 244.791,186.500 245.826 M60.093 251.800 C 60.094 252.460,60.232 253.540,60.400 254.200 C 60.823 255.863,60.842 254.226,60.423 252.200 C 60.145 250.855,60.092 250.791,60.093 251.800 M339.433 252.833 C 339.283 253.966,339.241 254.974,339.339 255.072 C 339.437 255.171,339.645 254.328,339.800 253.200 C 339.955 252.072,339.998 251.064,339.894 250.961 C 339.791 250.858,339.584 251.700,339.433 252.833 M174.362 253.641 C 172.008 255.149,170.106 256.621,171.600 255.779 C 172.515 255.264,176.924 252.409,177.142 252.191 C 177.708 251.625,176.637 252.184,174.362 253.641 M338.640 258.440 C 338.493 259.357,338.452 260.185,338.547 260.280 C 338.642 260.376,338.846 259.710,339.000 258.800 C 339.154 257.890,339.196 257.062,339.093 256.960 C 338.990 256.857,338.787 257.523,338.640 258.440 M60.880 257.800 C 60.880 258.240,61.024 259.050,61.200 259.600 C 61.454 260.392,61.520 260.433,61.520 259.800 C 61.520 259.360,61.376 258.550,61.200 258.000 C 60.946 257.208,60.880 257.167,60.880 257.800 M61.668 262.600 C 61.662 263.040,61.811 263.760,62.000 264.200 C 62.438 265.219,62.438 264.168,62.000 262.800 C 61.743 261.996,61.677 261.957,61.668 262.600 M337.850 263.250 C 337.709 263.953,337.669 264.602,337.759 264.692 C 337.850 264.783,338.048 264.291,338.200 263.600 C 338.352 262.909,338.393 262.259,338.291 262.158 C 338.189 262.056,337.991 262.547,337.850 263.250 M62.468 266.600 C 62.462 267.040,62.611 267.760,62.800 268.200 C 63.238 269.219,63.238 268.168,62.800 266.800 C 62.543 265.996,62.477 265.957,62.468 266.600 M337.050 267.250 C 336.909 267.953,336.869 268.602,336.959 268.692 C 337.050 268.783,337.248 268.291,337.400 267.600 C 337.552 266.909,337.593 266.259,337.491 266.158 C 337.389 266.056,337.191 266.547,337.050 267.250 M336.229 271.029 C 336.081 271.615,336.038 272.172,336.132 272.266 C 336.227 272.360,336.424 271.958,336.571 271.371 C 336.719 270.785,336.762 270.228,336.668 270.134 C 336.573 270.040,336.376 270.442,336.229 271.029 M67.000 280.000 C 67.341 280.660,67.711 281.200,67.821 281.200 C 67.931 281.200,67.741 280.660,67.400 280.000 C 67.059 279.340,66.689 278.800,66.579 278.800 C 66.469 278.800,66.659 279.340,67.000 280.000 M332.600 280.000 C 332.259 280.660,332.069 281.200,332.179 281.200 C 332.289 281.200,332.659 280.660,333.000 280.000 C 333.341 279.340,333.531 278.800,333.421 278.800 C 333.311 278.800,332.941 279.340,332.600 280.000 M329.201 284.998 C 328.686 285.548,328.339 286.064,328.432 286.146 C 328.524 286.228,329.019 285.778,329.530 285.147 C 330.676 283.735,330.474 283.644,329.201 284.998 M73.200 288.200 C 73.946 288.970,74.647 289.600,74.757 289.600 C 74.867 289.600,74.346 288.970,73.600 288.200 C 72.854 287.430,72.153 286.800,72.043 286.800 C 71.933 286.800,72.454 287.430,73.200 288.200 M75.344 289.909 C 75.660 290.421,78.000 292.153,78.000 291.875 C 78.000 291.776,77.339 291.191,76.532 290.575 C 75.724 289.959,75.189 289.659,75.344 289.909 M323.185 290.832 L 321.800 292.063 323.088 291.213 C 324.230 290.459,325.093 289.600,324.708 289.600 C 324.632 289.600,323.947 290.154,323.185 290.832 M320.200 292.800 C 319.540 293.237,319.180 293.592,319.400 293.588 C 319.801 293.582,321.976 292.023,321.600 292.012 C 321.490 292.008,320.860 292.363,320.200 292.800 M79.600 292.979 C 79.600 293.089,80.140 293.459,80.800 293.800 C 81.460 294.141,82.000 294.331,82.000 294.221 C 82.000 294.111,81.460 293.741,80.800 293.400 C 80.140 293.059,79.600 292.869,79.600 292.979 M309.400 297.200 C 308.896 297.417,308.822 297.544,309.200 297.544 C 309.530 297.544,310.160 297.389,310.600 297.200 C 311.104 296.983,311.178 296.856,310.800 296.856 C 310.470 296.856,309.840 297.011,309.400 297.200 M94.200 298.023 C 95.080 298.205,96.340 298.342,97.000 298.327 C 97.900 298.307,97.750 298.220,96.400 297.980 C 93.986 297.550,92.094 297.587,94.200 298.023 M303.600 298.000 C 302.538 298.224,302.441 298.302,303.200 298.324 C 303.750 298.341,304.920 298.205,305.800 298.023 C 307.134 297.747,307.200 297.693,306.200 297.699 C 305.540 297.702,304.370 297.838,303.600 298.000 M102.800 298.820 C 103.790 298.997,105.230 299.130,106.000 299.117 C 107.145 299.097,107.035 299.036,105.400 298.782 C 102.653 298.354,100.369 298.388,102.800 298.820 M297.700 298.676 C 298.085 298.776,298.715 298.776,299.100 298.676 C 299.485 298.575,299.170 298.493,298.400 298.493 C 297.630 298.493,297.315 298.575,297.700 298.676 M294.900 299.076 C 295.285 299.176,295.915 299.176,296.300 299.076 C 296.685 298.975,296.370 298.893,295.600 298.893 C 294.830 298.893,294.515 298.975,294.900 299.076 M112.600 299.618 C 113.700 299.790,115.320 299.920,116.200 299.909 C 117.593 299.890,117.516 299.848,115.600 299.583 C 114.390 299.416,112.770 299.285,112.000 299.293 C 110.878 299.304,110.997 299.369,112.600 299.618 M287.705 299.487 C 288.314 299.579,289.214 299.577,289.705 299.482 C 290.197 299.387,289.700 299.311,288.600 299.314 C 287.500 299.317,287.097 299.395,287.705 299.487 M283.705 299.887 C 284.314 299.979,285.214 299.977,285.705 299.882 C 286.197 299.787,285.700 299.711,284.600 299.714 C 283.500 299.717,283.097 299.795,283.705 299.887 M123.600 300.414 C 125.030 300.575,127.100 300.700,128.200 300.692 C 130.089 300.679,130.055 300.662,127.600 300.386 C 126.170 300.225,124.100 300.100,123.000 300.108 C 121.111 300.121,121.145 300.138,123.600 300.414 M272.800 300.400 C 270.620 300.667,270.616 300.670,272.400 300.695 C 273.390 300.709,275.190 300.584,276.400 300.417 C 278.561 300.118,278.568 300.113,276.800 300.122 C 275.810 300.126,274.010 300.252,272.800 300.400 M137.715 301.096 C 138.988 301.176,140.968 301.175,142.115 301.094 C 143.262 301.014,142.220 300.949,139.800 300.950 C 137.380 300.951,136.442 301.016,137.715 301.096 M257.113 301.095 C 258.276 301.176,260.076 301.176,261.113 301.093 C 262.151 301.011,261.200 300.945,259.000 300.946 C 256.800 300.947,255.951 301.014,257.113 301.095 M147.680 301.498 C 149.594 301.571,152.834 301.571,154.880 301.498 C 156.926 301.426,155.360 301.366,151.400 301.365 C 147.440 301.365,145.766 301.424,147.680 301.498 M249.712 301.495 C 250.764 301.577,252.384 301.576,253.312 301.492 C 254.240 301.408,253.380 301.341,251.400 301.342 C 249.420 301.343,248.660 301.412,249.712 301.495 M0.046 346.400 C 0.065 346.730,0.224 347.450,0.400 348.000 L 0.720 349.000 0.754 348.000 C 0.773 347.450,0.613 346.730,0.400 346.400 C 0.055 345.867,0.016 345.867,0.046 346.400 M399.449 346.615 C 399.312 346.973,399.216 347.656,399.236 348.133 C 399.262 348.747,399.385 348.608,399.659 347.656 C 400.057 346.272,399.894 345.458,399.449 346.615 M0.856 350.800 C 0.856 351.130,1.011 351.760,1.200 352.200 C 1.417 352.704,1.544 352.778,1.544 352.400 C 1.544 352.070,1.389 351.440,1.200 351.000 C 0.983 350.496,0.856 350.422,0.856 350.800 M398.629 351.429 C 398.481 352.015,398.438 352.572,398.532 352.666 C 398.627 352.760,398.824 352.358,398.971 351.771 C 399.119 351.185,399.162 350.628,399.068 350.534 C 398.973 350.440,398.776 350.842,398.629 351.429 M7.560 369.000 C 8.234 370.305,8.788 371.028,8.785 370.600 C 8.783 370.380,8.414 369.750,7.964 369.200 C 7.421 368.536,7.285 368.469,7.560 369.000 M391.908 369.300 C 391.033 370.649,390.248 372.256,390.687 371.800 C 391.248 371.217,392.898 368.400,392.679 368.400 C 392.576 368.400,392.229 368.805,391.908 369.300 M11.191 374.788 C 11.657 375.441,12.242 376.102,12.491 376.256 C 12.741 376.411,12.441 375.876,11.825 375.068 C 10.488 373.315,9.984 373.092,11.191 374.788 M388.175 375.068 C 387.559 375.876,387.259 376.411,387.509 376.256 C 388.021 375.940,389.753 373.600,389.475 373.600 C 389.376 373.600,388.791 374.261,388.175 375.068 M14.318 378.700 C 15.194 379.745,16.328 380.960,16.838 381.400 C 17.347 381.840,16.705 380.985,15.411 379.500 C 12.733 376.427,11.905 375.821,14.318 378.700 M384.589 379.500 C 383.295 380.985,382.653 381.840,383.162 381.400 C 384.183 380.519,387.373 376.800,387.108 376.800 C 387.017 376.800,385.883 378.015,384.589 379.500 M18.000 382.525 C 18.000 382.594,18.585 383.179,19.300 383.825 L 20.600 385.000 19.425 383.700 C 18.330 382.488,18.000 382.216,18.000 382.525 M380.575 383.700 L 379.400 385.000 380.700 383.825 C 381.912 382.730,382.184 382.400,381.875 382.400 C 381.806 382.400,381.221 382.985,380.575 383.700 M20.800 384.925 C 20.800 384.994,21.385 385.579,22.100 386.225 L 23.400 387.400 22.225 386.100 C 21.130 384.888,20.800 384.616,20.800 384.925 M377.775 386.100 L 376.600 387.400 377.900 386.225 C 378.615 385.579,379.200 384.994,379.200 384.925 C 379.200 384.616,378.870 384.888,377.775 386.100 M23.600 387.325 C 23.600 387.424,24.261 388.009,25.068 388.625 C 25.876 389.241,26.411 389.541,26.256 389.291 C 25.940 388.779,23.600 387.047,23.600 387.325 M374.785 388.429 L 373.400 389.658 374.900 388.581 C 376.226 387.630,376.657 387.200,376.285 387.200 C 376.222 387.200,375.547 387.753,374.785 388.429 M47.400 398.800 C 47.840 398.989,48.560 399.138,49.000 399.132 C 49.643 399.123,49.604 399.057,48.800 398.800 C 47.432 398.362,46.381 398.362,47.400 398.800 M351.200 398.800 C 350.396 399.057,350.357 399.123,351.000 399.132 C 351.440 399.138,352.160 398.989,352.600 398.800 C 353.619 398.362,352.568 398.362,351.200 398.800 M52.400 399.600 C 52.950 399.776,53.760 399.926,54.200 399.932 L 55.000 399.944 54.200 399.600 C 53.760 399.411,52.950 399.262,52.400 399.268 L 51.400 399.280 52.400 399.600 M345.800 399.600 L 345.000 399.944 345.800 399.932 C 346.240 399.926,347.050 399.776,347.600 399.600 L 348.600 399.280 347.600 399.268 C 347.050 399.262,346.240 399.411,345.800 399.600 " stroke="none" fill="#84a4d4" fill-rule="evenodd"></path><path id="path4" d="M159.500 104.693 C 160.435 104.777,161.965 104.777,162.900 104.693 C 163.835 104.609,163.070 104.540,161.200 104.540 C 159.330 104.540,158.565 104.609,159.500 104.693 M237.100 104.693 C 238.035 104.777,239.565 104.777,240.500 104.693 C 241.435 104.609,240.670 104.540,238.800 104.540 C 236.930 104.540,236.165 104.609,237.100 104.693 M341.293 172.800 C 341.293 173.570,341.375 173.885,341.476 173.500 C 341.576 173.115,341.576 172.485,341.476 172.100 C 341.375 171.715,341.293 172.030,341.293 172.800 M58.493 173.600 C 58.493 174.370,58.575 174.685,58.676 174.300 C 58.776 173.915,58.776 173.285,58.676 172.900 C 58.575 172.515,58.493 172.830,58.493 173.600 M341.748 205.600 C 341.748 207.910,341.814 208.855,341.895 207.700 C 341.976 206.545,341.976 204.655,341.895 203.500 C 341.814 202.345,341.748 203.290,341.748 205.600 M58.493 233.200 C 58.493 233.970,58.575 234.285,58.676 233.900 C 58.776 233.515,58.776 232.885,58.676 232.500 C 58.575 232.115,58.493 232.430,58.493 233.200 M341.293 233.600 C 341.293 234.370,341.375 234.685,341.476 234.300 C 341.576 233.915,341.576 233.285,341.476 232.900 C 341.375 232.515,341.293 232.830,341.293 233.600 M133.700 301.076 C 134.085 301.176,134.715 301.176,135.100 301.076 C 135.485 300.975,135.170 300.893,134.400 300.893 C 133.630 300.893,133.315 300.975,133.700 301.076 M263.505 301.083 C 264.002 301.179,264.722 301.175,265.105 301.075 C 265.487 300.975,265.080 300.896,264.200 300.901 C 263.320 300.905,263.007 300.987,263.505 301.083 M141.900 301.482 C 142.395 301.578,143.205 301.578,143.700 301.482 C 144.195 301.387,143.790 301.309,142.800 301.309 C 141.810 301.309,141.405 301.387,141.900 301.482 M255.500 301.482 C 255.995 301.578,256.805 301.578,257.300 301.482 C 257.795 301.387,257.390 301.309,256.400 301.309 C 255.410 301.309,255.005 301.387,255.500 301.482 M187.500 301.900 C 196.575 301.960,211.425 301.960,220.500 301.900 C 229.575 301.840,222.150 301.791,204.000 301.791 C 185.850 301.791,178.425 301.840,187.500 301.900 " stroke="none" fill="#7ca4d4" fill-rule="evenodd"></path></g></svg>