<svg id="svg" version="1.1" xmlns="http://www.w3.org/2000/svg" xmlns:xlink="http://www.w3.org/1999/xlink" width="400" height="400" viewBox="0, 0, 400,400"><g id="svgg"><path id="path0" d="M178.402 0.276 C 176.533 0.364,174.832 0.608,174.622 0.818 C 174.412 1.028,173.027 1.200,171.544 1.200 C 170.061 1.200,168.736 1.380,168.600 1.600 C 168.464 1.820,167.384 2.000,166.200 2.000 C 165.016 2.000,163.936 2.180,163.800 2.400 C 163.664 2.620,162.764 2.800,161.800 2.800 C 160.836 2.800,159.936 2.980,159.800 3.200 C 159.664 3.420,158.753 3.600,157.776 3.600 C 156.799 3.600,156.000 3.780,156.000 4.000 C 156.000 4.220,155.280 4.400,154.400 4.400 C 153.520 4.400,152.800 4.580,152.800 4.800 C 152.800 5.020,152.080 5.200,151.200 5.200 C 150.320 5.200,149.600 5.380,149.600 5.600 C 149.600 5.820,148.880 6.000,148.000 6.000 C 147.120 6.000,146.400 6.180,146.400 6.400 C 146.400 6.620,145.770 6.800,145.000 6.800 C 144.230 6.800,143.600 6.980,143.600 7.200 C 143.600 7.420,143.060 7.600,142.400 7.600 C 141.740 7.600,141.200 7.759,141.200 7.954 C 141.200 8.149,140.213 8.431,139.006 8.582 C 137.800 8.733,136.709 9.023,136.583 9.228 C 136.456 9.433,135.924 9.600,135.400 9.600 C 134.876 9.600,134.336 9.780,134.200 10.000 C 134.064 10.220,133.524 10.400,133.000 10.400 C 132.476 10.400,131.958 10.544,131.849 10.721 C 131.740 10.897,130.739 11.290,129.625 11.593 C 128.511 11.896,127.600 12.292,127.600 12.472 C 127.600 12.653,127.150 12.800,126.600 12.800 C 126.050 12.800,125.600 12.980,125.600 13.200 C 125.600 13.420,125.240 13.600,124.800 13.600 C 124.360 13.600,124.000 13.780,124.000 14.000 C 124.000 14.220,123.460 14.400,122.800 14.400 C 122.140 14.400,121.600 14.580,121.600 14.800 C 121.600 15.020,121.240 15.200,120.800 15.200 C 120.360 15.200,120.000 15.380,120.000 15.600 C 120.000 15.820,119.728 16.000,119.395 16.000 C 119.062 16.000,118.432 16.180,117.995 16.400 C 117.558 16.620,116.842 16.980,116.405 17.200 C 115.968 17.420,115.338 17.600,115.005 17.600 C 114.672 17.600,114.400 17.780,114.400 18.000 C 114.400 18.220,114.040 18.400,113.600 18.400 C 113.160 18.400,112.800 18.580,112.800 18.800 C 112.800 19.020,112.440 19.200,112.000 19.200 C 111.560 19.200,111.200 19.346,111.200 19.525 C 111.200 19.704,110.570 20.098,109.800 20.400 C 109.030 20.702,108.400 21.096,108.400 21.275 C 108.400 21.454,108.040 21.600,107.600 21.600 C 107.160 21.600,106.800 21.780,106.800 22.000 C 106.800 22.220,106.440 22.400,106.000 22.400 C 105.560 22.400,105.200 22.580,105.200 22.800 C 105.200 23.020,104.855 23.200,104.433 23.200 C 104.012 23.200,103.607 23.339,103.533 23.509 C 103.460 23.680,102.050 24.519,100.400 25.374 C 98.750 26.230,97.310 27.038,97.200 27.170 C 97.090 27.303,96.145 27.842,95.100 28.368 C 94.055 28.895,93.200 29.477,93.200 29.663 C 93.200 29.848,93.012 30.000,92.783 30.000 C 92.554 30.000,91.980 30.360,91.508 30.800 C 91.036 31.240,90.413 31.600,90.125 31.600 C 89.836 31.600,89.600 31.768,89.600 31.973 C 89.600 32.178,89.234 32.462,88.787 32.604 C 88.340 32.746,87.538 33.298,87.005 33.831 C 86.472 34.364,85.798 34.800,85.506 34.800 C 85.215 34.800,84.717 35.160,84.400 35.600 C 84.083 36.040,83.591 36.400,83.308 36.400 C 83.025 36.400,82.228 36.940,81.537 37.600 C 80.846 38.260,80.110 38.800,79.901 38.800 C 79.692 38.800,79.017 39.340,78.400 40.000 C 77.783 40.660,77.124 41.200,76.935 41.200 C 76.746 41.200,76.144 41.610,75.596 42.111 C 75.048 42.613,73.970 43.461,73.200 43.996 C 72.430 44.531,71.350 45.433,70.800 46.000 C 70.250 46.567,69.170 47.471,68.400 48.009 C 67.630 48.547,65.059 50.970,62.686 53.394 C 57.506 58.685,58.685 57.506,53.394 62.686 C 50.970 65.059,48.547 67.630,48.009 68.400 C 47.471 69.170,46.567 70.250,46.000 70.800 C 45.433 71.350,44.531 72.430,43.996 73.200 C 43.461 73.970,42.613 75.048,42.111 75.596 C 41.610 76.144,41.200 76.746,41.200 76.935 C 41.200 77.124,40.660 77.783,40.000 78.400 C 39.340 79.017,38.800 79.692,38.800 79.901 C 38.800 80.110,38.260 80.846,37.600 81.537 C 36.940 82.228,36.400 83.025,36.400 83.308 C 36.400 83.591,36.040 84.083,35.600 84.400 C 35.160 84.717,34.800 85.215,34.800 85.506 C 34.800 85.798,34.364 86.472,33.831 87.005 C 33.298 87.538,32.746 88.340,32.604 88.787 C 32.462 89.234,32.178 89.600,31.973 89.600 C 31.768 89.600,31.600 89.836,31.600 90.125 C 31.600 90.413,31.240 91.036,30.800 91.508 C 30.360 91.980,30.000 92.554,30.000 92.783 C 30.000 93.012,29.848 93.200,29.663 93.200 C 29.477 93.200,28.895 94.055,28.368 95.100 C 27.842 96.145,27.303 97.090,27.170 97.200 C 27.038 97.310,26.230 98.750,25.374 100.400 C 24.519 102.050,23.680 103.460,23.509 103.533 C 23.339 103.607,23.200 104.012,23.200 104.433 C 23.200 104.855,23.020 105.200,22.800 105.200 C 22.580 105.200,22.400 105.560,22.400 106.000 C 22.400 106.440,22.220 106.800,22.000 106.800 C 21.780 106.800,21.600 107.160,21.600 107.600 C 21.600 108.040,21.420 108.400,21.200 108.400 C 20.980 108.400,20.800 108.670,20.800 109.000 C 20.800 109.330,20.620 109.600,20.400 109.600 C 20.180 109.600,20.000 109.960,20.000 110.400 C 20.000 110.840,19.820 111.200,19.600 111.200 C 19.380 111.200,19.200 111.560,19.200 112.000 C 19.200 112.440,19.020 112.800,18.800 112.800 C 18.580 112.800,18.400 113.160,18.400 113.600 C 18.400 114.040,18.220 114.400,18.000 114.400 C 17.780 114.400,17.600 114.672,17.600 115.005 C 17.600 115.338,17.392 116.013,17.138 116.505 C 16.167 118.382,16.000 118.807,16.000 119.395 C 16.000 119.728,15.820 120.000,15.600 120.000 C 15.380 120.000,15.200 120.360,15.200 120.800 C 15.200 121.240,15.020 121.600,14.800 121.600 C 14.580 121.600,14.400 122.039,14.400 122.576 C 14.400 123.113,14.220 123.664,14.000 123.800 C 13.780 123.936,13.600 124.397,13.600 124.824 C 13.600 125.251,13.420 125.600,13.200 125.600 C 12.980 125.600,12.800 126.050,12.800 126.600 C 12.800 127.150,12.620 127.600,12.400 127.600 C 12.180 127.600,12.000 127.949,12.000 128.376 C 12.000 128.803,11.820 129.264,11.600 129.400 C 11.380 129.536,11.200 130.076,11.200 130.600 C 11.200 131.124,11.020 131.664,10.800 131.800 C 10.580 131.936,10.400 132.476,10.400 133.000 C 10.400 133.524,10.220 134.064,10.000 134.200 C 9.780 134.336,9.600 134.876,9.600 135.400 C 9.600 135.924,9.433 136.456,9.228 136.583 C 9.023 136.709,8.733 137.800,8.582 139.006 C 8.431 140.213,8.149 141.200,7.954 141.200 C 7.759 141.200,7.600 141.740,7.600 142.400 C 7.600 143.060,7.420 143.600,7.200 143.600 C 6.980 143.600,6.800 144.230,6.800 145.000 C 6.800 145.770,6.620 146.400,6.400 146.400 C 6.180 146.400,6.000 147.120,6.000 148.000 C 6.000 148.880,5.820 149.600,5.600 149.600 C 5.380 149.600,5.200 150.320,5.200 151.200 C 5.200 152.080,5.020 152.800,4.800 152.800 C 4.580 152.800,4.400 153.520,4.400 154.400 C 4.400 155.280,4.220 156.000,4.000 156.000 C 3.780 156.000,3.600 156.799,3.600 157.776 C 3.600 158.753,3.420 159.664,3.200 159.800 C 2.980 159.936,2.800 160.836,2.800 161.800 C 2.800 162.764,2.620 163.664,2.400 163.800 C 2.180 163.936,2.000 165.016,2.000 166.200 C 2.000 167.384,1.820 168.464,1.600 168.600 C 1.380 168.736,1.200 170.061,1.200 171.544 C 1.200 173.167,1.001 174.439,0.700 174.740 C -0.029 175.469,-0.029 224.531,0.700 225.260 C 1.001 225.561,1.200 226.833,1.200 228.456 C 1.200 229.939,1.380 231.264,1.600 231.400 C 1.820 231.536,2.000 232.616,2.000 233.800 C 2.000 234.984,2.180 236.064,2.400 236.200 C 2.620 236.336,2.800 237.236,2.800 238.200 C 2.800 239.164,2.980 240.064,3.200 240.200 C 3.420 240.336,3.600 241.247,3.600 242.224 C 3.600 243.201,3.780 244.000,4.000 244.000 C 4.220 244.000,4.400 244.720,4.400 245.600 C 4.400 246.480,4.580 247.200,4.800 247.200 C 5.020 247.200,5.200 247.920,5.200 248.800 C 5.200 249.680,5.380 250.400,5.600 250.400 C 5.820 250.400,6.000 251.120,6.000 252.000 C 6.000 252.880,6.180 253.600,6.400 253.600 C 6.620 253.600,6.800 254.230,6.800 255.000 C 6.800 255.770,6.980 256.400,7.200 256.400 C 7.420 256.400,7.600 256.940,7.600 257.600 C 7.600 258.260,7.759 258.800,7.954 258.800 C 8.149 258.800,8.431 259.787,8.582 260.994 C 8.733 262.200,9.023 263.291,9.228 263.417 C 9.433 263.544,9.600 264.076,9.600 264.600 C 9.600 265.124,9.780 265.664,10.000 265.800 C 10.220 265.936,10.400 266.476,10.400 267.000 C 10.400 267.524,10.580 268.064,10.800 268.200 C 11.020 268.336,11.200 268.876,11.200 269.400 C 11.200 269.924,11.380 270.464,11.600 270.600 C 11.820 270.736,12.000 271.197,12.000 271.624 C 12.000 272.051,12.180 272.400,12.400 272.400 C 12.620 272.400,12.800 272.850,12.800 273.400 C 12.800 273.950,12.980 274.400,13.200 274.400 C 13.420 274.400,13.600 274.760,13.600 275.200 C 13.600 275.640,13.780 276.000,14.000 276.000 C 14.220 276.000,14.400 276.540,14.400 277.200 C 14.400 277.860,14.580 278.400,14.800 278.400 C 15.020 278.400,15.200 278.760,15.200 279.200 C 15.200 279.640,15.380 280.000,15.600 280.000 C 15.820 280.000,16.000 280.272,16.000 280.605 C 16.000 281.193,16.167 281.618,17.138 283.495 C 17.392 283.987,17.600 284.662,17.600 284.995 C 17.600 285.328,17.780 285.600,18.000 285.600 C 18.220 285.600,18.400 285.960,18.400 286.400 C 18.400 286.840,18.580 287.200,18.800 287.200 C 19.020 287.200,19.200 287.560,19.200 288.000 C 19.200 288.440,19.346 288.800,19.525 288.800 C 19.704 288.800,20.098 289.430,20.400 290.200 C 20.702 290.970,21.096 291.600,21.275 291.600 C 21.454 291.600,21.600 291.960,21.600 292.400 C 21.600 292.840,21.780 293.200,22.000 293.200 C 22.220 293.200,22.400 293.560,22.400 294.000 C 22.400 294.440,22.580 294.800,22.800 294.800 C 23.020 294.800,23.200 295.145,23.200 295.567 C 23.200 295.988,23.339 296.393,23.509 296.467 C 23.680 296.540,24.519 297.950,25.374 299.600 C 26.230 301.250,27.036 302.690,27.166 302.800 C 27.295 302.910,27.671 303.540,28.001 304.200 C 28.330 304.860,28.915 305.749,29.300 306.175 C 29.685 306.602,30.000 307.104,30.000 307.292 C 30.000 307.480,30.360 308.020,30.800 308.492 C 31.240 308.964,31.600 309.587,31.600 309.875 C 31.600 310.164,31.768 310.400,31.973 310.400 C 32.178 310.400,32.462 310.766,32.604 311.213 C 32.746 311.660,33.298 312.462,33.831 312.995 C 34.364 313.528,34.800 314.202,34.800 314.494 C 34.800 314.785,35.160 315.283,35.600 315.600 C 36.040 315.917,36.400 316.409,36.400 316.692 C 36.400 316.975,36.940 317.772,37.600 318.463 C 38.260 319.154,38.800 319.890,38.800 320.099 C 38.800 320.308,39.340 320.983,40.000 321.600 C 40.660 322.217,41.200 322.881,41.200 323.077 C 41.200 323.273,41.830 324.101,42.600 324.918 C 43.370 325.734,44.000 326.557,44.000 326.747 C 44.000 326.937,44.990 328.123,46.200 329.382 C 47.410 330.642,48.400 331.834,48.400 332.032 C 48.400 332.230,50.462 334.418,52.982 336.896 C 58.519 342.338,57.532 341.351,63.045 346.959 C 65.555 349.512,67.770 351.600,67.968 351.600 C 68.166 351.600,69.358 352.590,70.618 353.800 C 71.877 355.010,73.071 356.000,73.272 356.000 C 73.472 356.000,74.070 356.405,74.599 356.900 C 76.063 358.269,76.740 358.800,77.023 358.800 C 77.164 358.800,77.783 359.340,78.400 360.000 C 79.017 360.660,79.737 361.200,80.000 361.200 C 80.263 361.200,80.983 361.740,81.600 362.400 C 82.217 363.060,82.969 363.600,83.272 363.600 C 83.575 363.600,84.083 363.960,84.400 364.400 C 84.717 364.840,85.215 365.200,85.506 365.200 C 85.798 365.200,86.472 365.636,87.005 366.169 C 87.538 366.702,88.340 367.254,88.787 367.396 C 89.234 367.538,89.600 367.822,89.600 368.027 C 89.600 368.232,89.836 368.400,90.125 368.400 C 90.413 368.400,91.036 368.760,91.508 369.200 C 91.980 369.640,92.554 370.000,92.783 370.000 C 93.012 370.000,93.200 370.180,93.200 370.400 C 93.200 370.620,93.470 370.800,93.800 370.800 C 94.130 370.800,94.400 370.946,94.400 371.125 C 94.400 371.304,95.030 371.698,95.800 372.000 C 96.570 372.302,97.200 372.663,97.200 372.803 C 97.200 372.942,98.640 373.740,100.400 374.575 C 102.160 375.411,103.600 376.254,103.600 376.447 C 103.600 376.641,103.960 376.800,104.400 376.800 C 104.840 376.800,105.200 376.980,105.200 377.200 C 105.200 377.420,105.560 377.600,106.000 377.600 C 106.440 377.600,106.800 377.780,106.800 378.000 C 106.800 378.220,107.160 378.400,107.600 378.400 C 108.040 378.400,108.400 378.546,108.400 378.725 C 108.400 378.904,109.030 379.298,109.800 379.600 C 110.570 379.902,111.200 380.296,111.200 380.475 C 111.200 380.654,111.560 380.800,112.000 380.800 C 112.440 380.800,112.800 380.980,112.800 381.200 C 112.800 381.420,113.160 381.600,113.600 381.600 C 114.040 381.600,114.400 381.780,114.400 382.000 C 114.400 382.220,114.672 382.400,115.005 382.400 C 115.338 382.400,116.013 382.608,116.505 382.862 C 118.382 383.833,118.807 384.000,119.395 384.000 C 119.728 384.000,120.000 384.180,120.000 384.400 C 120.000 384.620,120.360 384.800,120.800 384.800 C 121.240 384.800,121.600 384.980,121.600 385.200 C 121.600 385.420,122.140 385.600,122.800 385.600 C 123.460 385.600,124.000 385.780,124.000 386.000 C 124.000 386.220,124.360 386.400,124.800 386.400 C 125.240 386.400,125.600 386.580,125.600 386.800 C 125.600 387.020,126.050 387.200,126.600 387.200 C 127.150 387.200,127.600 387.347,127.600 387.528 C 127.600 387.708,128.511 388.104,129.625 388.407 C 130.739 388.710,131.740 389.103,131.849 389.279 C 131.958 389.456,132.476 389.600,133.000 389.600 C 133.524 389.600,134.064 389.780,134.200 390.000 C 134.336 390.220,134.876 390.400,135.400 390.400 C 135.924 390.400,136.456 390.567,136.583 390.772 C 136.709 390.977,137.800 391.267,139.006 391.418 C 140.213 391.569,141.200 391.851,141.200 392.046 C 141.200 392.241,141.729 392.400,142.376 392.400 C 143.023 392.400,143.664 392.580,143.800 392.800 C 143.936 393.020,144.577 393.200,145.224 393.200 C 145.871 393.200,146.400 393.380,146.400 393.600 C 146.400 393.820,147.120 394.000,148.000 394.000 C 148.880 394.000,149.600 394.180,149.600 394.400 C 149.600 394.620,150.320 394.800,151.200 394.800 C 152.080 394.800,152.800 394.980,152.800 395.200 C 152.800 395.420,153.520 395.600,154.400 395.600 C 155.280 395.600,156.000 395.780,156.000 396.000 C 156.000 396.220,156.900 396.400,158.000 396.400 C 159.100 396.400,160.000 396.580,160.000 396.800 C 160.000 397.020,160.900 397.200,162.000 397.200 C 163.100 397.200,164.000 397.380,164.000 397.600 C 164.000 397.822,165.059 398.000,166.376 398.000 C 167.683 398.000,168.864 398.180,169.000 398.400 C 169.136 398.620,170.482 398.800,171.990 398.800 C 173.829 398.800,174.788 398.965,174.900 399.300 C 175.144 400.032,224.856 400.032,225.100 399.300 C 225.212 398.965,226.171 398.800,228.010 398.800 C 229.518 398.800,230.864 398.620,231.000 398.400 C 231.136 398.180,232.317 398.000,233.624 398.000 C 234.941 398.000,236.000 397.822,236.000 397.600 C 236.000 397.380,236.900 397.200,238.000 397.200 C 239.100 397.200,240.000 397.020,240.000 396.800 C 240.000 396.580,240.900 396.400,242.000 396.400 C 243.100 396.400,244.000 396.220,244.000 396.000 C 244.000 395.780,244.720 395.600,245.600 395.600 C 246.480 395.600,247.200 395.420,247.200 395.200 C 247.200 394.980,247.920 394.800,248.800 394.800 C 249.680 394.800,250.400 394.620,250.400 394.400 C 250.400 394.180,251.120 394.000,252.000 394.000 C 252.880 394.000,253.600 393.820,253.600 393.600 C 253.600 393.380,254.129 393.200,254.776 393.200 C 255.423 393.200,256.064 393.020,256.200 392.800 C 256.336 392.580,256.977 392.400,257.624 392.400 C 258.271 392.400,258.800 392.241,258.800 392.046 C 258.800 391.851,259.787 391.569,260.994 391.418 C 262.200 391.267,263.291 390.977,263.417 390.772 C 263.544 390.567,264.076 390.400,264.600 390.400 C 265.124 390.400,265.664 390.220,265.800 390.000 C 265.936 389.780,266.476 389.600,267.000 389.600 C 267.524 389.600,268.064 389.420,268.200 389.200 C 268.336 388.980,268.876 388.800,269.400 388.800 C 269.924 388.800,270.464 388.620,270.600 388.400 C 270.736 388.180,271.197 388.000,271.624 388.000 C 272.051 388.000,272.400 387.820,272.400 387.600 C 272.400 387.380,272.850 387.200,273.400 387.200 C 273.950 387.200,274.400 387.020,274.400 386.800 C 274.400 386.580,274.749 386.400,275.176 386.400 C 275.603 386.400,276.064 386.220,276.200 386.000 C 276.336 385.780,276.887 385.600,277.424 385.600 C 277.961 385.600,278.400 385.420,278.400 385.200 C 278.400 384.980,278.760 384.800,279.200 384.800 C 279.640 384.800,280.000 384.620,280.000 384.400 C 280.000 384.180,280.272 384.000,280.605 384.000 C 281.193 384.000,281.618 383.833,283.495 382.862 C 283.987 382.608,284.662 382.400,284.995 382.400 C 285.328 382.400,285.600 382.220,285.600 382.000 C 285.600 381.780,285.960 381.600,286.400 381.600 C 286.840 381.600,287.200 381.420,287.200 381.200 C 287.200 380.980,287.560 380.800,288.000 380.800 C 288.440 380.800,288.800 380.620,288.800 380.400 C 288.800 380.180,289.160 380.000,289.600 380.000 C 290.040 380.000,290.400 379.820,290.400 379.600 C 290.400 379.380,290.670 379.200,291.000 379.200 C 291.330 379.200,291.600 379.020,291.600 378.800 C 291.600 378.580,291.960 378.400,292.400 378.400 C 292.840 378.400,293.200 378.220,293.200 378.000 C 293.200 377.780,293.560 377.600,294.000 377.600 C 294.440 377.600,294.800 377.420,294.800 377.200 C 294.800 376.980,295.160 376.800,295.600 376.800 C 296.040 376.800,296.400 376.644,296.400 376.454 C 296.400 376.264,297.795 375.437,299.500 374.616 C 301.205 373.796,302.690 372.997,302.800 372.841 C 302.910 372.686,303.650 372.256,304.445 371.887 C 305.240 371.517,306.117 370.941,306.394 370.607 C 306.671 370.273,307.106 370.000,307.361 370.000 C 307.615 370.000,308.083 369.640,308.400 369.200 C 308.717 368.760,309.297 368.400,309.688 368.400 C 310.080 368.400,310.400 368.232,310.400 368.027 C 310.400 367.822,310.766 367.538,311.213 367.396 C 311.660 367.254,312.462 366.702,312.995 366.169 C 313.528 365.636,314.202 365.200,314.494 365.200 C 314.785 365.200,315.283 364.840,315.600 364.400 C 315.917 363.960,316.425 363.600,316.728 363.600 C 317.031 363.600,317.783 363.060,318.400 362.400 C 319.017 361.740,319.737 361.200,320.000 361.200 C 320.263 361.200,320.983 360.660,321.600 360.000 C 322.217 359.340,322.836 358.800,322.977 358.800 C 323.260 358.800,323.937 358.269,325.401 356.900 C 325.930 356.405,326.534 356.000,326.741 356.000 C 326.949 356.000,328.038 355.100,329.161 354.000 C 330.285 352.900,331.375 352.000,331.583 352.000 C 331.791 352.000,334.086 349.850,336.681 347.221 C 342.392 341.438,341.438 342.392,347.221 336.681 C 349.850 334.086,352.000 331.791,352.000 331.583 C 352.000 331.375,352.900 330.285,354.000 329.161 C 355.100 328.038,356.000 326.949,356.000 326.741 C 356.000 326.534,356.405 325.930,356.900 325.401 C 358.269 323.937,358.800 323.260,358.800 322.977 C 358.800 322.836,359.340 322.217,360.000 321.600 C 360.660 320.983,361.200 320.263,361.200 320.000 C 361.200 319.737,361.740 319.017,362.400 318.400 C 363.060 317.783,363.600 317.031,363.600 316.728 C 363.600 316.425,363.960 315.917,364.400 315.600 C 364.840 315.283,365.200 314.785,365.200 314.494 C 365.200 314.202,365.636 313.528,366.169 312.995 C 366.702 312.462,367.254 311.660,367.396 311.213 C 367.538 310.766,367.822 310.400,368.027 310.400 C 368.232 310.400,368.400 310.080,368.400 309.688 C 368.400 309.297,368.760 308.717,369.200 308.400 C 369.640 308.083,370.000 307.593,370.000 307.312 C 370.000 307.030,370.180 306.800,370.400 306.800 C 370.620 306.800,370.800 306.530,370.800 306.200 C 370.800 305.870,370.946 305.600,371.125 305.600 C 371.304 305.600,371.698 304.970,372.000 304.200 C 372.302 303.430,372.663 302.800,372.803 302.800 C 372.942 302.800,373.740 301.360,374.575 299.600 C 375.411 297.840,376.254 296.400,376.447 296.400 C 376.641 296.400,376.800 296.040,376.800 295.600 C 376.800 295.160,376.980 294.800,377.200 294.800 C 377.420 294.800,377.600 294.440,377.600 294.000 C 377.600 293.560,377.780 293.200,378.000 293.200 C 378.220 293.200,378.400 292.840,378.400 292.400 C 378.400 291.960,378.546 291.600,378.725 291.600 C 378.904 291.600,379.298 290.970,379.600 290.200 C 379.902 289.430,380.296 288.800,380.475 288.800 C 380.654 288.800,380.800 288.440,380.800 288.000 C 380.800 287.560,380.980 287.200,381.200 287.200 C 381.420 287.200,381.600 286.840,381.600 286.400 C 381.600 285.960,381.780 285.600,382.000 285.600 C 382.220 285.600,382.400 285.328,382.400 284.995 C 382.400 284.662,382.580 284.032,382.800 283.595 C 383.020 283.158,383.380 282.442,383.600 282.005 C 383.820 281.568,384.000 280.938,384.000 280.605 C 384.000 280.272,384.180 280.000,384.400 280.000 C 384.620 280.000,384.800 279.640,384.800 279.200 C 384.800 278.760,384.980 278.400,385.200 278.400 C 385.420 278.400,385.600 277.961,385.600 277.424 C 385.600 276.887,385.780 276.336,386.000 276.200 C 386.220 276.064,386.400 275.603,386.400 275.176 C 386.400 274.749,386.580 274.400,386.800 274.400 C 387.020 274.400,387.200 273.950,387.200 273.400 C 387.200 272.850,387.347 272.400,387.528 272.400 C 387.708 272.400,388.104 271.489,388.407 270.375 C 388.710 269.261,389.103 268.260,389.279 268.151 C 389.456 268.042,389.600 267.524,389.600 267.000 C 389.600 266.476,389.780 265.936,390.000 265.800 C 390.220 265.664,390.400 265.124,390.400 264.600 C 390.400 264.076,390.567 263.544,390.772 263.417 C 390.977 263.291,391.267 262.200,391.418 260.994 C 391.569 259.787,391.851 258.800,392.046 258.800 C 392.241 258.800,392.400 258.271,392.400 257.624 C 392.400 256.977,392.580 256.336,392.800 256.200 C 393.020 256.064,393.200 255.423,393.200 254.776 C 393.200 254.129,393.380 253.600,393.600 253.600 C 393.820 253.600,394.000 252.880,394.000 252.000 C 394.000 251.120,394.180 250.400,394.400 250.400 C 394.620 250.400,394.800 249.680,394.800 248.800 C 394.800 247.920,394.980 247.200,395.200 247.200 C 395.420 247.200,395.600 246.480,395.600 245.600 C 395.600 244.720,395.780 244.000,396.000 244.000 C 396.220 244.000,396.400 243.100,396.400 242.000 C 396.400 240.900,396.580 240.000,396.800 240.000 C 397.020 240.000,397.200 239.100,397.200 238.000 C 397.200 236.900,397.380 236.000,397.600 236.000 C 397.822 236.000,398.000 234.941,398.000 233.624 C 398.000 232.317,398.180 231.136,398.400 231.000 C 398.620 230.864,398.800 229.518,398.800 228.010 C 398.800 226.171,398.965 225.212,399.300 225.100 C 399.693 224.969,399.800 219.591,399.800 200.000 C 399.800 180.409,399.693 175.031,399.300 174.900 C 398.965 174.788,398.800 173.829,398.800 171.990 C 398.800 170.482,398.620 169.136,398.400 169.000 C 398.180 168.864,398.000 167.683,398.000 166.376 C 398.000 165.059,397.822 164.000,397.600 164.000 C 397.380 164.000,397.200 163.100,397.200 162.000 C 397.200 160.900,397.020 160.000,396.800 160.000 C 396.580 160.000,396.400 159.100,396.400 158.000 C 396.400 156.900,396.220 156.000,396.000 156.000 C 395.780 156.000,395.600 155.280,395.600 154.400 C 395.600 153.520,395.420 152.800,395.200 152.800 C 394.980 152.800,394.800 152.080,394.800 151.200 C 394.800 150.320,394.620 149.600,394.400 149.600 C 394.180 149.600,394.000 148.880,394.000 148.000 C 394.000 147.120,393.820 146.400,393.600 146.400 C 393.380 146.400,393.200 145.871,393.200 145.224 C 393.200 144.577,393.020 143.936,392.800 143.800 C 392.580 143.664,392.400 143.023,392.400 142.376 C 392.400 141.729,392.241 141.200,392.046 141.200 C 391.851 141.200,391.569 140.213,391.418 139.006 C 391.267 137.800,390.977 136.709,390.772 136.583 C 390.567 136.456,390.400 135.924,390.400 135.400 C 390.400 134.876,390.220 134.336,390.000 134.200 C 389.780 134.064,389.600 133.524,389.600 133.000 C 389.600 132.476,389.456 131.958,389.279 131.849 C 389.103 131.740,388.710 130.739,388.407 129.625 C 388.104 128.511,387.708 127.600,387.528 127.600 C 387.347 127.600,387.200 127.150,387.200 126.600 C 387.200 126.050,387.020 125.600,386.800 125.600 C 386.580 125.600,386.400 125.251,386.400 124.824 C 386.400 124.397,386.220 123.936,386.000 123.800 C 385.780 123.664,385.600 123.113,385.600 122.576 C 385.600 122.039,385.420 121.600,385.200 121.600 C 384.980 121.600,384.800 121.240,384.800 120.800 C 384.800 120.360,384.620 120.000,384.400 120.000 C 384.180 120.000,384.000 119.728,384.000 119.395 C 384.000 119.062,383.820 118.432,383.600 117.995 C 383.380 117.558,383.020 116.842,382.800 116.405 C 382.580 115.968,382.400 115.338,382.400 115.005 C 382.400 114.672,382.220 114.400,382.000 114.400 C 381.780 114.400,381.600 114.040,381.600 113.600 C 381.600 113.160,381.420 112.800,381.200 112.800 C 380.980 112.800,380.800 112.440,380.800 112.000 C 380.800 111.560,380.654 111.200,380.475 111.200 C 380.296 111.200,379.902 110.570,379.600 109.800 C 379.298 109.030,378.904 108.400,378.725 108.400 C 378.546 108.400,378.400 108.040,378.400 107.600 C 378.400 107.160,378.220 106.800,378.000 106.800 C 377.780 106.800,377.600 106.440,377.600 106.000 C 377.600 105.560,377.420 105.200,377.200 105.200 C 376.980 105.200,376.800 104.840,376.800 104.400 C 376.800 103.960,376.641 103.600,376.447 103.600 C 376.254 103.600,375.411 102.160,374.575 100.400 C 373.740 98.640,372.942 97.200,372.803 97.200 C 372.663 97.200,372.302 96.570,372.000 95.800 C 371.698 95.030,371.304 94.400,371.125 94.400 C 370.946 94.400,370.800 94.130,370.800 93.800 C 370.800 93.470,370.620 93.200,370.400 93.200 C 370.180 93.200,370.000 93.012,370.000 92.783 C 370.000 92.554,369.640 91.980,369.200 91.508 C 368.760 91.036,368.400 90.413,368.400 90.125 C 368.400 89.836,368.232 89.600,368.027 89.600 C 367.822 89.600,367.538 89.234,367.396 88.787 C 367.254 88.340,366.702 87.538,366.169 87.005 C 365.636 86.472,365.200 85.798,365.200 85.506 C 365.200 85.215,364.840 84.717,364.400 84.400 C 363.960 84.083,363.600 83.591,363.600 83.308 C 363.600 83.025,363.060 82.228,362.400 81.537 C 361.740 80.846,361.200 80.110,361.200 79.901 C 361.200 79.692,360.660 79.017,360.000 78.400 C 359.340 77.783,358.800 77.124,358.800 76.935 C 358.800 76.746,358.390 76.144,357.889 75.596 C 357.387 75.048,356.538 73.970,356.002 73.200 C 355.465 72.430,354.345 71.139,353.513 70.331 C 352.681 69.524,352.000 68.677,352.000 68.450 C 352.000 68.224,349.850 65.914,347.221 63.319 C 341.438 57.608,342.392 58.562,336.681 52.779 C 334.086 50.150,331.776 48.000,331.550 48.000 C 331.323 48.000,330.476 47.319,329.669 46.487 C 328.861 45.655,327.570 44.535,326.800 43.998 C 326.030 43.462,324.952 42.613,324.404 42.111 C 323.856 41.610,323.254 41.200,323.065 41.200 C 322.876 41.200,322.217 40.660,321.600 40.000 C 320.983 39.340,320.308 38.800,320.099 38.800 C 319.890 38.800,319.154 38.260,318.463 37.600 C 317.772 36.940,316.975 36.400,316.692 36.400 C 316.409 36.400,315.917 36.040,315.600 35.600 C 315.283 35.160,314.838 34.800,314.612 34.800 C 314.385 34.799,313.683 34.354,313.051 33.811 C 312.419 33.267,311.564 32.716,311.151 32.584 C 310.738 32.453,310.400 32.178,310.400 31.973 C 310.400 31.768,310.164 31.600,309.875 31.600 C 309.587 31.600,308.964 31.240,308.492 30.800 C 308.020 30.360,307.446 30.000,307.217 30.000 C 306.988 30.000,306.800 29.820,306.800 29.600 C 306.800 29.380,306.530 29.200,306.200 29.200 C 305.870 29.200,305.600 29.054,305.600 28.875 C 305.600 28.696,304.970 28.302,304.200 28.000 C 303.430 27.698,302.800 27.337,302.800 27.197 C 302.800 27.058,301.360 26.260,299.600 25.425 C 297.840 24.589,296.400 23.746,296.400 23.553 C 296.400 23.359,296.040 23.200,295.600 23.200 C 295.160 23.200,294.800 23.020,294.800 22.800 C 294.800 22.580,294.440 22.400,294.000 22.400 C 293.560 22.400,293.200 22.220,293.200 22.000 C 293.200 21.780,292.840 21.600,292.400 21.600 C 291.960 21.600,291.600 21.420,291.600 21.200 C 291.600 20.980,291.330 20.800,291.000 20.800 C 290.670 20.800,290.400 20.620,290.400 20.400 C 290.400 20.180,290.040 20.000,289.600 20.000 C 289.160 20.000,288.800 19.820,288.800 19.600 C 288.800 19.380,288.440 19.200,288.000 19.200 C 287.560 19.200,287.200 19.020,287.200 18.800 C 287.200 18.580,286.840 18.400,286.400 18.400 C 285.960 18.400,285.600 18.220,285.600 18.000 C 285.600 17.780,285.240 17.600,284.800 17.600 C 284.360 17.600,284.000 17.420,284.000 17.200 C 284.000 16.980,283.561 16.800,283.024 16.800 C 282.487 16.800,281.936 16.620,281.800 16.400 C 281.664 16.180,281.203 16.000,280.776 16.000 C 280.349 16.000,280.000 15.820,280.000 15.600 C 280.000 15.380,279.640 15.200,279.200 15.200 C 278.760 15.200,278.400 15.020,278.400 14.800 C 278.400 14.580,277.961 14.400,277.424 14.400 C 276.887 14.400,276.336 14.220,276.200 14.000 C 276.064 13.780,275.603 13.600,275.176 13.600 C 274.749 13.600,274.400 13.420,274.400 13.200 C 274.400 12.980,273.950 12.800,273.400 12.800 C 272.850 12.800,272.400 12.620,272.400 12.400 C 272.400 12.180,272.051 12.000,271.624 12.000 C 271.197 12.000,270.736 11.820,270.600 11.600 C 270.464 11.380,269.924 11.200,269.400 11.200 C 268.876 11.200,268.336 11.020,268.200 10.800 C 268.064 10.580,267.524 10.400,267.000 10.400 C 266.476 10.400,265.936 10.220,265.800 10.000 C 265.664 9.780,265.124 9.600,264.600 9.600 C 264.076 9.600,263.544 9.433,263.417 9.228 C 263.291 9.023,262.200 8.733,260.994 8.582 C 259.787 8.431,258.800 8.149,258.800 7.954 C 258.800 7.759,258.260 7.600,257.600 7.600 C 256.940 7.600,256.400 7.420,256.400 7.200 C 256.400 6.980,255.770 6.800,255.000 6.800 C 254.230 6.800,253.600 6.620,253.600 6.400 C 253.600 6.180,252.880 6.000,252.000 6.000 C 251.120 6.000,250.400 5.820,250.400 5.600 C 250.400 5.380,249.680 5.200,248.800 5.200 C 247.920 5.200,247.200 5.020,247.200 4.800 C 247.200 4.580,246.480 4.400,245.600 4.400 C 244.720 4.400,244.000 4.220,244.000 4.000 C 244.000 3.780,243.201 3.600,242.224 3.600 C 241.247 3.600,240.336 3.420,240.200 3.200 C 240.064 2.980,239.164 2.800,238.200 2.800 C 237.236 2.800,236.336 2.620,236.200 2.400 C 236.064 2.180,234.984 2.000,233.800 2.000 C 232.616 2.000,231.536 1.820,231.400 1.600 C 231.264 1.380,229.828 1.200,228.210 1.200 C 226.235 1.200,225.213 1.038,225.103 0.708 C 224.940 0.221,187.057 -0.129,178.402 0.276 M211.526 24.829 C 217.397 25.068,222.371 25.429,222.580 25.632 C 222.789 25.834,224.094 26.000,225.480 26.000 C 226.893 26.000,228.000 26.176,228.000 26.400 C 228.000 26.620,228.990 26.800,230.200 26.800 C 231.410 26.800,232.400 26.980,232.400 27.200 C 232.400 27.420,233.300 27.600,234.400 27.600 C 235.500 27.600,236.400 27.780,236.400 28.000 C 236.400 28.220,237.120 28.400,238.000 28.400 C 238.880 28.400,239.600 28.580,239.600 28.800 C 239.600 29.020,240.410 29.200,241.400 29.200 C 242.390 29.200,243.200 29.380,243.200 29.600 C 243.200 29.820,243.729 30.000,244.376 30.000 C 245.023 30.000,245.664 30.180,245.800 30.400 C 245.936 30.620,246.667 30.800,247.424 30.800 C 248.181 30.800,248.800 30.980,248.800 31.200 C 248.800 31.420,249.340 31.600,250.000 31.600 C 250.660 31.600,251.200 31.780,251.200 32.000 C 251.200 32.220,251.740 32.400,252.400 32.400 C 253.060 32.400,253.600 32.580,253.600 32.800 C 253.600 33.020,254.140 33.200,254.800 33.200 C 255.460 33.200,256.000 33.380,256.000 33.600 C 256.000 33.820,256.540 34.000,257.200 34.000 C 257.860 34.000,258.400 34.180,258.400 34.400 C 258.400 34.620,258.839 34.800,259.376 34.800 C 259.913 34.800,260.464 34.980,260.600 35.200 C 260.736 35.420,261.287 35.600,261.824 35.600 C 262.361 35.600,262.800 35.780,262.800 36.000 C 262.800 36.220,263.160 36.400,263.600 36.400 C 264.040 36.400,264.400 36.580,264.400 36.800 C 264.400 37.020,264.940 37.200,265.600 37.200 C 266.260 37.200,266.800 37.380,266.800 37.600 C 266.800 37.820,267.160 38.000,267.600 38.000 C 268.040 38.000,268.400 38.180,268.400 38.400 C 268.400 38.620,268.665 38.800,268.989 38.800 C 269.313 38.800,270.348 39.146,271.289 39.569 C 274.799 41.146,275.932 41.600,276.360 41.600 C 276.602 41.600,276.800 41.780,276.800 42.000 C 276.800 42.220,277.160 42.400,277.600 42.400 C 278.040 42.400,278.400 42.580,278.400 42.800 C 278.400 43.020,278.760 43.200,279.200 43.200 C 279.640 43.200,280.000 43.380,280.000 43.600 C 280.000 43.820,280.360 44.000,280.800 44.000 C 281.240 44.000,281.600 44.180,281.600 44.400 C 281.600 44.620,281.960 44.800,282.400 44.800 C 282.840 44.800,283.200 44.980,283.200 45.200 C 283.200 45.420,283.436 45.600,283.725 45.600 C 284.013 45.600,284.636 45.960,285.108 46.400 C 285.580 46.840,286.244 47.200,286.583 47.200 C 286.922 47.200,287.200 47.380,287.200 47.600 C 287.200 47.820,287.478 48.000,287.817 48.000 C 288.156 48.000,288.820 48.360,289.292 48.800 C 289.764 49.240,290.387 49.600,290.675 49.600 C 290.964 49.600,291.200 49.780,291.200 50.000 C 291.200 50.220,291.436 50.400,291.725 50.400 C 292.013 50.400,292.636 50.760,293.108 51.200 C 293.580 51.640,294.154 52.000,294.383 52.000 C 294.612 52.000,294.800 52.180,294.800 52.400 C 294.800 52.620,295.036 52.800,295.325 52.800 C 295.613 52.800,296.236 53.160,296.708 53.600 C 297.180 54.040,297.709 54.400,297.883 54.401 C 298.057 54.401,298.830 54.941,299.600 55.600 C 300.370 56.259,301.143 56.799,301.317 56.799 C 301.617 56.800,302.117 57.163,303.385 58.300 C 303.692 58.575,304.153 58.800,304.411 58.800 C 304.668 58.800,305.383 59.340,306.000 60.000 C 306.617 60.660,307.305 61.200,307.530 61.200 C 307.754 61.200,308.644 61.920,309.507 62.800 C 310.369 63.680,311.207 64.400,311.369 64.400 C 311.531 64.400,312.324 65.081,313.131 65.913 C 313.939 66.745,315.214 67.858,315.965 68.386 C 318.750 70.347,329.653 81.250,331.614 84.035 C 332.142 84.786,333.255 86.061,334.087 86.869 C 334.919 87.676,335.600 88.469,335.600 88.631 C 335.600 88.793,336.320 89.631,337.200 90.493 C 338.080 91.356,338.800 92.246,338.800 92.470 C 338.800 92.695,339.340 93.383,340.000 94.000 C 340.660 94.617,341.200 95.326,341.200 95.577 C 341.200 95.828,341.425 96.302,341.700 96.631 C 341.975 96.959,342.380 97.447,342.600 97.714 C 342.820 97.981,343.255 98.695,343.568 99.300 C 343.880 99.905,344.263 100.400,344.419 100.400 C 344.575 100.400,344.927 100.940,345.200 101.600 C 345.473 102.260,345.855 102.800,346.049 102.800 C 346.242 102.800,346.400 103.036,346.400 103.325 C 346.400 103.613,346.760 104.236,347.200 104.708 C 347.640 105.180,348.000 105.726,348.000 105.921 C 348.000 106.116,348.360 106.602,348.800 107.000 C 349.240 107.398,349.600 107.966,349.600 108.262 C 349.600 108.558,349.780 108.800,350.000 108.800 C 350.220 108.800,350.400 109.036,350.400 109.325 C 350.400 109.613,350.760 110.236,351.200 110.708 C 351.640 111.180,352.000 111.844,352.000 112.183 C 352.000 112.522,352.180 112.800,352.400 112.800 C 352.620 112.800,352.800 113.160,352.800 113.600 C 352.800 114.040,352.980 114.400,353.200 114.400 C 353.420 114.400,353.600 114.670,353.600 115.000 C 353.600 115.330,353.780 115.600,354.000 115.600 C 354.220 115.600,354.400 115.870,354.400 116.200 C 354.400 116.530,354.580 116.800,354.800 116.800 C 355.020 116.800,355.200 117.160,355.200 117.600 C 355.200 118.040,355.380 118.400,355.600 118.400 C 355.820 118.400,356.000 118.760,356.000 119.200 C 356.000 119.640,356.180 120.000,356.400 120.000 C 356.620 120.000,356.800 120.360,356.800 120.800 C 356.800 121.240,356.980 121.600,357.200 121.600 C 357.420 121.600,357.600 121.960,357.600 122.400 C 357.600 122.840,357.772 123.200,357.982 123.200 C 358.192 123.200,358.482 123.830,358.626 124.600 C 358.771 125.370,359.049 126.000,359.245 126.000 C 359.440 126.000,359.600 126.279,359.600 126.619 C 359.600 126.960,359.960 127.984,360.400 128.894 C 360.840 129.805,361.200 130.786,361.200 131.075 C 361.200 131.364,361.380 131.600,361.600 131.600 C 361.820 131.600,362.000 131.960,362.000 132.400 C 362.000 132.840,362.180 133.200,362.400 133.200 C 362.620 133.200,362.800 133.740,362.800 134.400 C 362.800 135.060,362.980 135.600,363.200 135.600 C 363.420 135.600,363.600 135.872,363.600 136.205 C 363.600 136.538,363.808 137.213,364.062 137.705 C 365.058 139.631,365.200 140.017,365.200 140.795 C 365.200 141.238,365.380 141.600,365.600 141.600 C 365.820 141.600,366.000 142.140,366.000 142.800 C 366.000 143.460,366.180 144.000,366.400 144.000 C 366.620 144.000,366.800 144.540,366.800 145.200 C 366.800 145.860,366.980 146.400,367.200 146.400 C 367.420 146.400,367.600 146.940,367.600 147.600 C 367.600 148.260,367.780 148.800,368.000 148.800 C 368.220 148.800,368.400 149.340,368.400 150.000 C 368.400 150.660,368.580 151.200,368.800 151.200 C 369.020 151.200,369.200 151.819,369.200 152.576 C 369.200 153.333,369.380 154.064,369.600 154.200 C 369.820 154.336,370.000 154.977,370.000 155.624 C 370.000 156.271,370.180 156.800,370.400 156.800 C 370.620 156.800,370.800 157.610,370.800 158.600 C 370.800 159.590,370.980 160.400,371.200 160.400 C 371.420 160.400,371.600 161.120,371.600 162.000 C 371.600 162.880,371.780 163.600,372.000 163.600 C 372.220 163.600,372.400 164.500,372.400 165.600 C 372.400 166.700,372.580 167.600,372.800 167.600 C 373.020 167.600,373.200 168.590,373.200 169.800 C 373.200 171.010,373.380 172.000,373.600 172.000 C 373.828 172.000,374.000 173.189,374.000 174.767 C 374.000 176.288,374.165 177.593,374.368 177.667 C 375.637 178.127,375.621 222.652,374.351 223.133 C 374.158 223.207,374.000 224.332,374.000 225.633 C 374.000 226.944,373.822 228.000,373.600 228.000 C 373.380 228.000,373.200 228.990,373.200 230.200 C 373.200 231.410,373.020 232.400,372.800 232.400 C 372.580 232.400,372.400 233.300,372.400 234.400 C 372.400 235.500,372.220 236.400,372.000 236.400 C 371.780 236.400,371.600 237.109,371.600 237.976 C 371.600 238.843,371.420 239.664,371.200 239.800 C 370.980 239.936,370.800 240.757,370.800 241.624 C 370.800 242.491,370.620 243.200,370.400 243.200 C 370.180 243.200,370.000 243.729,370.000 244.376 C 370.000 245.023,369.820 245.664,369.600 245.800 C 369.380 245.936,369.200 246.667,369.200 247.424 C 369.200 248.181,369.020 248.800,368.800 248.800 C 368.580 248.800,368.400 249.340,368.400 250.000 C 368.400 250.660,368.220 251.200,368.000 251.200 C 367.780 251.200,367.600 251.729,367.600 252.376 C 367.600 253.023,367.420 253.664,367.200 253.800 C 366.980 253.936,366.800 254.487,366.800 255.024 C 366.800 255.561,366.620 256.000,366.400 256.000 C 366.180 256.000,366.000 256.540,366.000 257.200 C 366.000 257.860,365.820 258.400,365.600 258.400 C 365.380 258.400,365.200 258.839,365.200 259.376 C 365.200 259.913,365.020 260.464,364.800 260.600 C 364.580 260.736,364.400 261.287,364.400 261.824 C 364.400 262.361,364.220 262.800,364.000 262.800 C 363.780 262.800,363.600 263.149,363.600 263.576 C 363.600 264.003,363.420 264.464,363.200 264.600 C 362.980 264.736,362.800 265.287,362.800 265.824 C 362.800 266.361,362.620 266.800,362.400 266.800 C 362.180 266.800,362.000 267.160,362.000 267.600 C 362.000 268.040,361.820 268.400,361.600 268.400 C 361.380 268.400,361.200 268.679,361.200 269.019 C 361.200 269.360,360.840 270.384,360.400 271.294 C 359.960 272.205,359.600 273.186,359.600 273.475 C 359.600 273.764,359.440 274.000,359.245 274.000 C 359.049 274.000,358.771 274.630,358.626 275.400 C 358.482 276.170,358.192 276.800,357.982 276.800 C 357.772 276.800,357.600 277.160,357.600 277.600 C 357.600 278.040,357.420 278.400,357.200 278.400 C 356.980 278.400,356.800 278.760,356.800 279.200 C 356.800 279.640,356.620 280.000,356.400 280.000 C 356.180 280.000,356.000 280.360,356.000 280.800 C 356.000 281.240,355.820 281.600,355.600 281.600 C 355.380 281.600,355.200 281.836,355.200 282.125 C 355.200 282.413,354.840 283.036,354.400 283.508 C 353.960 283.980,353.600 284.644,353.600 284.983 C 353.600 285.322,353.420 285.600,353.200 285.600 C 352.980 285.600,352.800 285.960,352.800 286.400 C 352.800 286.840,352.620 287.200,352.400 287.200 C 352.180 287.200,352.000 287.520,352.000 287.912 C 352.000 288.303,351.640 288.883,351.200 289.200 C 350.760 289.517,350.400 290.097,350.400 290.488 C 350.400 290.880,350.220 291.200,350.000 291.200 C 349.780 291.200,349.600 291.470,349.600 291.800 C 349.600 292.130,349.420 292.400,349.200 292.400 C 348.980 292.400,348.800 292.670,348.800 293.000 C 348.800 293.330,348.620 293.600,348.400 293.600 C 348.180 293.600,348.000 293.870,348.000 294.200 C 348.000 294.530,347.850 294.800,347.668 294.800 C 347.485 294.800,347.080 295.295,346.768 295.900 C 346.455 296.505,345.885 297.349,345.500 297.775 C 345.115 298.202,344.800 298.787,344.800 299.075 C 344.800 299.364,344.650 299.600,344.468 299.600 C 344.285 299.600,343.880 300.095,343.568 300.700 C 342.990 301.819,342.594 302.388,341.700 303.385 C 341.425 303.692,341.200 304.153,341.200 304.411 C 341.200 304.668,340.660 305.383,340.000 306.000 C 339.340 306.617,338.800 307.305,338.800 307.530 C 338.800 307.754,338.080 308.644,337.200 309.507 C 336.320 310.369,335.600 311.207,335.600 311.369 C 335.600 311.531,334.925 312.324,334.100 313.131 C 333.275 313.939,332.099 315.271,331.486 316.092 C 330.873 316.912,329.343 318.648,328.086 319.949 C 326.829 321.250,325.252 322.919,324.581 323.657 C 321.543 327.004,320.000 327.793,320.000 326.000 C 320.000 325.340,319.820 324.800,319.600 324.800 C 319.380 324.800,319.200 324.260,319.200 323.600 C 319.200 322.940,319.020 322.400,318.800 322.400 C 318.580 322.400,318.400 321.860,318.400 321.200 C 318.400 320.540,318.220 320.000,318.000 320.000 C 317.780 320.000,317.600 319.561,317.600 319.024 C 317.600 318.487,317.420 317.936,317.200 317.800 C 316.980 317.664,316.800 317.203,316.800 316.776 C 316.800 316.349,316.620 316.000,316.400 316.000 C 316.180 316.000,316.000 315.561,316.000 315.024 C 316.000 314.487,315.820 313.936,315.600 313.800 C 315.380 313.664,315.200 313.203,315.200 312.776 C 315.200 312.349,315.020 312.000,314.800 312.000 C 314.580 312.000,314.400 311.640,314.400 311.200 C 314.400 310.760,314.254 310.400,314.075 310.400 C 313.896 310.400,313.502 309.770,313.200 309.000 C 312.898 308.230,312.504 307.600,312.325 307.600 C 312.146 307.600,312.000 307.240,312.000 306.800 C 312.000 306.360,311.820 306.000,311.600 306.000 C 311.380 306.000,311.200 305.640,311.200 305.200 C 311.200 304.760,311.020 304.400,310.800 304.400 C 310.580 304.400,310.400 304.040,310.400 303.600 C 310.400 303.160,310.220 302.800,310.000 302.800 C 309.780 302.800,309.600 302.440,309.600 302.000 C 309.600 301.560,309.420 301.200,309.200 301.200 C 308.980 301.200,308.800 300.840,308.800 300.400 C 308.800 299.960,308.632 299.600,308.427 299.600 C 308.222 299.600,307.927 299.195,307.772 298.700 C 307.617 298.205,306.975 297.048,306.345 296.128 C 305.715 295.208,305.200 294.263,305.200 294.028 C 305.200 293.793,305.050 293.600,304.868 293.600 C 304.685 293.600,304.280 293.108,303.968 292.507 C 303.655 291.906,302.905 290.889,302.300 290.248 C 301.695 289.606,301.200 288.926,301.200 288.737 C 301.200 288.548,300.660 287.828,300.000 287.137 C 299.340 286.446,298.800 285.714,298.800 285.509 C 298.800 285.305,298.080 284.446,297.200 283.600 C 296.320 282.754,295.600 281.862,295.600 281.616 C 295.600 281.045,282.136 267.600,281.564 267.600 C 281.330 267.600,280.446 266.880,279.600 266.000 C 278.754 265.120,277.895 264.400,277.691 264.400 C 277.486 264.400,276.754 263.860,276.063 263.200 C 275.372 262.540,274.648 262.000,274.453 262.000 C 274.258 262.000,273.870 261.725,273.591 261.389 C 272.875 260.527,269.657 258.400,269.068 258.400 C 268.798 258.400,268.317 258.040,268.000 257.600 C 267.683 257.160,267.103 256.800,266.712 256.800 C 266.320 256.800,266.000 256.620,266.000 256.400 C 266.000 256.180,265.680 256.000,265.288 256.000 C 264.897 256.000,264.317 255.640,264.000 255.200 C 263.683 254.760,263.103 254.400,262.712 254.400 C 262.320 254.400,262.000 254.220,262.000 254.000 C 262.000 253.780,261.640 253.600,261.200 253.600 C 260.760 253.600,260.400 253.420,260.400 253.200 C 260.400 252.980,260.122 252.800,259.783 252.800 C 259.444 252.800,258.780 252.440,258.308 252.000 C 257.836 251.560,257.123 251.200,256.725 251.200 C 256.326 251.200,256.000 251.020,256.000 250.800 C 256.000 250.580,255.640 250.400,255.200 250.400 C 254.760 250.400,254.400 250.220,254.400 250.000 C 254.400 249.780,254.040 249.600,253.600 249.600 C 253.160 249.600,252.800 249.420,252.800 249.200 C 252.800 248.980,252.440 248.800,252.000 248.800 C 251.560 248.800,251.200 248.620,251.200 248.400 C 251.200 248.180,250.840 248.000,250.400 248.000 C 249.960 248.000,249.600 247.897,249.600 247.771 C 249.600 247.362,250.731 246.400,251.211 246.400 C 251.468 246.400,252.183 245.860,252.800 245.200 C 253.417 244.540,254.086 244.000,254.288 244.000 C 255.356 244.000,269.200 230.218,269.200 229.155 C 269.200 228.916,269.740 228.217,270.400 227.600 C 271.060 226.983,271.600 226.257,271.600 225.986 C 271.600 225.716,271.927 225.203,272.328 224.847 C 272.728 224.491,273.179 223.930,273.330 223.600 C 273.482 223.270,274.062 222.280,274.620 221.400 C 275.178 220.520,275.737 219.485,275.864 219.100 C 275.990 218.715,276.252 218.400,276.447 218.400 C 276.641 218.400,276.800 218.040,276.800 217.600 C 276.800 217.160,276.980 216.800,277.200 216.800 C 277.420 216.800,277.600 216.440,277.600 216.000 C 277.600 215.560,277.780 215.200,278.000 215.200 C 278.220 215.200,278.400 214.840,278.400 214.400 C 278.400 213.960,278.580 213.600,278.800 213.600 C 279.020 213.600,279.200 213.240,279.200 212.800 C 279.200 212.360,279.380 212.000,279.600 212.000 C 279.820 212.000,280.000 211.640,280.000 211.200 C 280.000 210.760,280.180 210.400,280.400 210.400 C 280.620 210.400,280.800 210.128,280.800 209.795 C 280.800 209.462,280.980 208.832,281.200 208.395 C 281.420 207.958,281.780 207.242,282.000 206.805 C 282.220 206.368,282.400 205.648,282.400 205.205 C 282.400 204.762,282.580 204.400,282.800 204.400 C 283.020 204.400,283.200 203.860,283.200 203.200 C 283.200 202.540,283.380 202.000,283.600 202.000 C 283.820 202.000,284.000 201.460,284.000 200.800 C 284.000 200.140,284.180 199.600,284.400 199.600 C 284.620 199.600,284.800 198.880,284.800 198.000 C 284.800 197.120,284.980 196.400,285.200 196.400 C 285.420 196.400,285.600 195.680,285.600 194.800 C 285.600 193.920,285.780 193.200,286.000 193.200 C 286.220 193.200,286.400 192.221,286.400 191.024 C 286.400 189.827,286.580 188.736,286.800 188.600 C 287.020 188.464,287.200 187.024,287.200 185.400 C 287.200 183.776,287.380 182.336,287.600 182.200 C 287.843 182.050,288.000 179.129,288.000 174.776 C 288.000 170.259,287.852 167.600,287.600 167.600 C 287.365 167.600,287.200 166.200,287.200 164.200 C 287.200 162.200,287.035 160.800,286.800 160.800 C 286.580 160.800,286.400 159.911,286.400 158.824 C 286.400 157.737,286.220 156.736,286.000 156.600 C 285.780 156.464,285.600 155.654,285.600 154.800 C 285.600 153.946,285.420 153.136,285.200 153.000 C 284.980 152.864,284.800 152.223,284.800 151.576 C 284.800 150.929,284.620 150.400,284.400 150.400 C 284.180 150.400,284.000 149.781,284.000 149.024 C 284.000 148.267,283.820 147.536,283.600 147.400 C 283.380 147.264,283.200 146.713,283.200 146.176 C 283.200 145.639,283.020 145.200,282.800 145.200 C 282.580 145.200,282.400 144.750,282.400 144.200 C 282.400 143.650,282.220 143.200,282.000 143.200 C 281.780 143.200,281.600 142.750,281.600 142.200 C 281.600 141.650,281.420 141.200,281.200 141.200 C 280.980 141.200,280.800 140.840,280.800 140.400 C 280.800 139.960,280.620 139.600,280.400 139.600 C 280.180 139.600,280.000 139.240,280.000 138.800 C 280.000 138.360,279.820 138.000,279.600 138.000 C 279.380 138.000,279.196 137.595,279.191 137.100 C 279.186 136.605,278.830 135.750,278.400 135.200 C 277.970 134.650,277.614 133.975,277.609 133.700 C 277.604 133.425,277.420 133.200,277.200 133.200 C 276.980 133.200,276.800 132.840,276.800 132.400 C 276.800 131.960,276.620 131.600,276.400 131.600 C 276.180 131.600,276.000 131.240,276.000 130.800 C 276.000 130.360,275.865 129.998,275.700 129.995 C 275.535 129.993,275.059 129.279,274.642 128.409 C 274.225 127.539,273.550 126.468,273.142 126.030 C 272.734 125.592,272.400 125.073,272.400 124.876 C 272.400 124.679,271.860 123.954,271.200 123.263 C 270.540 122.572,270.000 121.812,270.000 121.572 C 270.000 121.333,269.280 120.446,268.400 119.600 C 267.520 118.754,266.800 117.879,266.800 117.654 C 266.800 117.042,258.007 108.400,257.386 108.400 C 257.249 108.400,256.446 107.680,255.600 106.800 C 254.754 105.920,253.895 105.200,253.691 105.200 C 253.486 105.200,252.754 104.660,252.063 104.000 C 251.372 103.340,250.575 102.800,250.292 102.800 C 250.009 102.800,249.517 102.440,249.200 102.000 C 248.883 101.560,248.343 101.200,248.000 101.200 C 247.657 101.200,247.117 100.840,246.800 100.400 C 246.483 99.960,245.903 99.600,245.512 99.600 C 245.120 99.600,244.800 99.420,244.800 99.200 C 244.800 98.980,244.455 98.800,244.033 98.800 C 243.612 98.800,243.207 98.644,243.133 98.454 C 242.953 97.986,236.878 94.800,236.166 94.800 C 235.855 94.800,235.600 94.620,235.600 94.400 C 235.600 94.180,235.328 94.000,234.995 94.000 C 234.662 94.000,234.077 93.841,233.695 93.647 C 231.602 92.582,227.269 91.200,226.025 91.200 C 225.571 91.200,225.200 91.020,225.200 90.800 C 225.200 90.580,224.570 90.400,223.800 90.400 C 223.030 90.400,222.400 90.220,222.400 90.000 C 222.400 89.780,221.680 89.600,220.800 89.600 C 219.920 89.600,219.200 89.420,219.200 89.200 C 219.200 88.980,218.311 88.800,217.224 88.800 C 216.137 88.800,215.136 88.620,215.000 88.400 C 214.864 88.180,213.413 88.000,211.776 88.000 C 210.059 88.000,208.800 87.831,208.800 87.600 C 208.800 87.345,205.600 87.200,200.000 87.200 C 194.400 87.200,191.200 87.345,191.200 87.600 C 191.200 87.831,189.941 88.000,188.224 88.000 C 186.587 88.000,185.136 88.180,185.000 88.400 C 184.864 88.620,183.863 88.800,182.776 88.800 C 181.689 88.800,180.800 88.980,180.800 89.200 C 180.800 89.420,180.080 89.600,179.200 89.600 C 178.320 89.600,177.600 89.780,177.600 90.000 C 177.600 90.220,176.970 90.400,176.200 90.400 C 175.430 90.400,174.800 90.580,174.800 90.800 C 174.800 91.020,174.271 91.200,173.624 91.200 C 172.977 91.200,172.351 91.356,172.232 91.547 C 172.114 91.739,171.286 92.012,170.391 92.155 C 169.497 92.298,168.413 92.592,167.983 92.808 C 167.552 93.023,166.842 93.380,166.405 93.600 C 165.968 93.820,165.338 94.000,165.005 94.000 C 164.672 94.000,164.400 94.180,164.400 94.400 C 164.400 94.620,164.175 94.799,163.900 94.797 C 163.147 94.792,156.800 98.065,156.800 98.458 C 156.800 98.646,156.440 98.800,156.000 98.800 C 155.560 98.800,155.200 98.980,155.200 99.200 C 155.200 99.420,154.880 99.600,154.488 99.600 C 154.097 99.600,153.517 99.960,153.200 100.400 C 152.883 100.840,152.343 101.200,152.000 101.200 C 151.657 101.200,151.117 101.560,150.800 102.000 C 150.483 102.440,149.991 102.800,149.708 102.800 C 149.425 102.800,148.628 103.340,147.937 104.000 C 147.246 104.660,146.514 105.200,146.309 105.200 C 146.105 105.200,145.246 105.920,144.400 106.800 C 143.554 107.680,142.751 108.400,142.614 108.400 C 141.993 108.400,133.200 117.042,133.200 117.654 C 133.200 117.879,132.480 118.754,131.600 119.600 C 130.720 120.446,130.000 121.333,130.000 121.572 C 130.000 121.812,129.460 122.572,128.800 123.263 C 128.140 123.954,127.600 124.679,127.600 124.876 C 127.600 125.073,127.266 125.592,126.858 126.030 C 126.450 126.468,125.775 127.539,125.358 128.409 C 124.941 129.279,124.465 129.993,124.300 129.995 C 124.135 129.998,124.000 130.360,124.000 130.800 C 124.000 131.240,123.820 131.600,123.600 131.600 C 123.380 131.600,123.200 131.960,123.200 132.400 C 123.200 132.840,123.020 133.200,122.800 133.200 C 122.580 133.200,122.396 133.425,122.391 133.700 C 122.386 133.975,122.030 134.650,121.600 135.200 C 121.170 135.750,120.814 136.605,120.809 137.100 C 120.804 137.595,120.620 138.000,120.400 138.000 C 120.180 138.000,120.000 138.360,120.000 138.800 C 120.000 139.240,119.820 139.600,119.600 139.600 C 119.380 139.600,119.200 139.960,119.200 140.400 C 119.200 140.840,119.020 141.200,118.800 141.200 C 118.580 141.200,118.400 141.650,118.400 142.200 C 118.400 142.750,118.220 143.200,118.000 143.200 C 117.780 143.200,117.600 143.650,117.600 144.200 C 117.600 144.750,117.420 145.200,117.200 145.200 C 116.980 145.200,116.800 145.639,116.800 146.176 C 116.800 146.713,116.620 147.264,116.400 147.400 C 116.180 147.536,116.000 148.267,116.000 149.024 C 116.000 149.781,115.820 150.400,115.600 150.400 C 115.380 150.400,115.200 150.929,115.200 151.576 C 115.200 152.223,115.020 152.864,114.800 153.000 C 114.580 153.136,114.400 153.946,114.400 154.800 C 114.400 155.654,114.220 156.464,114.000 156.600 C 113.780 156.736,113.600 157.636,113.600 158.600 C 113.600 159.564,113.420 160.464,113.200 160.600 C 112.980 160.736,112.800 162.367,112.800 164.224 C 112.800 166.208,112.635 167.600,112.400 167.600 C 112.148 167.600,112.000 170.259,112.000 174.776 C 112.000 179.129,112.157 182.050,112.400 182.200 C 112.620 182.336,112.800 183.877,112.800 185.624 C 112.800 187.475,112.967 188.800,113.200 188.800 C 113.420 188.800,113.600 189.790,113.600 191.000 C 113.600 192.210,113.780 193.200,114.000 193.200 C 114.220 193.200,114.400 193.920,114.400 194.800 C 114.400 195.680,114.580 196.400,114.800 196.400 C 115.020 196.400,115.200 197.120,115.200 198.000 C 115.200 198.880,115.380 199.600,115.600 199.600 C 115.820 199.600,116.000 200.140,116.000 200.800 C 116.000 201.460,116.180 202.000,116.400 202.000 C 116.620 202.000,116.800 202.540,116.800 203.200 C 116.800 203.860,116.980 204.400,117.200 204.400 C 117.420 204.400,117.600 204.762,117.600 205.205 C 117.600 205.648,117.780 206.368,118.000 206.805 C 118.220 207.242,118.580 207.958,118.800 208.395 C 119.020 208.832,119.200 209.462,119.200 209.795 C 119.200 210.128,119.380 210.400,119.600 210.400 C 119.820 210.400,120.000 210.760,120.000 211.200 C 120.000 211.640,120.180 212.000,120.400 212.000 C 120.620 212.000,120.800 212.360,120.800 212.800 C 120.800 213.240,120.980 213.600,121.200 213.600 C 121.420 213.600,121.600 213.960,121.600 214.400 C 121.600 214.840,121.780 215.200,122.000 215.200 C 122.220 215.200,122.400 215.560,122.400 216.000 C 122.400 216.440,122.580 216.800,122.800 216.800 C 123.020 216.800,123.200 217.160,123.200 217.600 C 123.200 218.040,123.359 218.400,123.553 218.400 C 123.748 218.400,124.010 218.715,124.136 219.100 C 124.263 219.485,124.822 220.520,125.380 221.400 C 125.938 222.280,126.518 223.270,126.670 223.600 C 126.821 223.930,127.272 224.491,127.672 224.847 C 128.073 225.203,128.400 225.716,128.400 225.986 C 128.400 226.257,128.940 226.983,129.600 227.600 C 130.260 228.217,130.800 228.930,130.800 229.186 C 130.800 229.442,131.700 230.529,132.800 231.600 C 133.900 232.671,134.800 233.710,134.800 233.908 C 134.800 234.485,144.186 243.200,144.806 243.200 C 145.023 243.200,145.200 243.380,145.200 243.600 C 145.200 243.820,145.398 244.000,145.640 244.000 C 145.881 244.000,146.583 244.540,147.200 245.200 C 147.817 245.860,148.532 246.400,148.789 246.400 C 149.269 246.400,150.400 247.362,150.400 247.771 C 150.400 247.897,150.040 248.000,149.600 248.000 C 149.160 248.000,148.800 248.180,148.800 248.400 C 148.800 248.620,148.440 248.800,148.000 248.800 C 147.560 248.800,147.200 248.980,147.200 249.200 C 147.200 249.420,146.840 249.600,146.400 249.600 C 145.960 249.600,145.600 249.780,145.600 250.000 C 145.600 250.220,145.240 250.400,144.800 250.400 C 144.360 250.400,144.000 250.580,144.000 250.800 C 144.000 251.020,143.674 251.200,143.275 251.200 C 142.877 251.200,142.164 251.560,141.692 252.000 C 141.220 252.440,140.556 252.800,140.217 252.800 C 139.878 252.800,139.600 252.980,139.600 253.200 C 139.600 253.420,139.240 253.600,138.800 253.600 C 138.360 253.600,138.000 253.780,138.000 254.000 C 138.000 254.220,137.680 254.400,137.288 254.400 C 136.897 254.400,136.317 254.760,136.000 255.200 C 135.683 255.640,135.103 256.000,134.712 256.000 C 134.320 256.000,134.000 256.180,134.000 256.400 C 134.000 256.620,133.680 256.800,133.288 256.800 C 132.897 256.800,132.317 257.160,132.000 257.600 C 131.683 258.040,131.202 258.400,130.932 258.400 C 130.343 258.400,127.125 260.527,126.409 261.389 C 126.130 261.725,125.742 262.000,125.547 262.000 C 125.352 262.000,124.628 262.540,123.937 263.200 C 123.246 263.860,122.514 264.400,122.309 264.400 C 122.105 264.400,121.246 265.120,120.400 266.000 C 119.554 266.880,118.677 267.600,118.451 267.600 C 117.890 267.600,105.200 280.200,105.200 280.757 C 105.200 281.000,105.020 281.200,104.800 281.200 C 104.580 281.200,104.400 281.394,104.400 281.631 C 104.400 281.869,103.680 282.754,102.800 283.600 C 101.920 284.446,101.200 285.305,101.200 285.509 C 101.200 285.714,100.660 286.446,100.000 287.137 C 99.340 287.828,98.800 288.548,98.800 288.737 C 98.800 288.926,98.305 289.606,97.700 290.248 C 97.095 290.889,96.345 291.906,96.032 292.507 C 95.720 293.108,95.315 293.600,95.132 293.600 C 94.950 293.600,94.800 293.793,94.800 294.028 C 94.800 294.263,94.285 295.208,93.655 296.128 C 93.025 297.048,92.383 298.205,92.228 298.700 C 92.073 299.195,91.778 299.600,91.573 299.600 C 91.368 299.600,91.200 299.960,91.200 300.400 C 91.200 300.840,91.020 301.200,90.800 301.200 C 90.580 301.200,90.400 301.560,90.400 302.000 C 90.400 302.440,90.220 302.800,90.000 302.800 C 89.780 302.800,89.600 303.160,89.600 303.600 C 89.600 304.040,89.420 304.400,89.200 304.400 C 88.980 304.400,88.800 304.760,88.800 305.200 C 88.800 305.640,88.620 306.000,88.400 306.000 C 88.180 306.000,88.000 306.360,88.000 306.800 C 88.000 307.240,87.854 307.600,87.675 307.600 C 87.496 307.600,87.102 308.230,86.800 309.000 C 86.498 309.770,86.104 310.400,85.925 310.400 C 85.746 310.400,85.600 310.760,85.600 311.200 C 85.600 311.640,85.420 312.000,85.200 312.000 C 84.980 312.000,84.800 312.349,84.800 312.776 C 84.800 313.203,84.620 313.664,84.400 313.800 C 84.180 313.936,84.000 314.487,84.000 315.024 C 84.000 315.561,83.820 316.000,83.600 316.000 C 83.380 316.000,83.200 316.349,83.200 316.776 C 83.200 317.203,83.020 317.664,82.800 317.800 C 82.580 317.936,82.400 318.487,82.400 319.024 C 82.400 319.561,82.220 320.000,82.000 320.000 C 81.780 320.000,81.600 320.540,81.600 321.200 C 81.600 321.860,81.420 322.400,81.200 322.400 C 80.980 322.400,80.800 322.940,80.800 323.600 C 80.800 324.260,80.620 324.800,80.400 324.800 C 80.180 324.800,80.000 325.340,80.000 326.000 C 80.000 327.764,78.627 327.089,75.526 323.800 C 74.903 323.140,73.322 321.471,72.011 320.092 C 70.701 318.712,69.127 316.912,68.514 316.092 C 67.901 315.271,66.725 313.939,65.900 313.131 C 65.075 312.324,64.400 311.531,64.400 311.369 C 64.400 311.207,63.680 310.369,62.800 309.507 C 61.920 308.644,61.200 307.754,61.200 307.530 C 61.200 307.305,60.660 306.617,60.000 306.000 C 59.340 305.383,58.800 304.674,58.800 304.423 C 58.800 304.172,58.575 303.698,58.300 303.369 C 58.025 303.041,57.620 302.553,57.400 302.286 C 57.180 302.019,56.745 301.305,56.432 300.700 C 56.120 300.095,55.715 299.600,55.532 299.600 C 55.350 299.600,55.200 299.364,55.200 299.075 C 55.200 298.787,54.885 298.202,54.500 297.775 C 54.115 297.349,53.545 296.505,53.232 295.900 C 52.920 295.295,52.515 294.800,52.332 294.800 C 52.150 294.800,52.000 294.612,52.000 294.383 C 52.000 294.154,51.640 293.580,51.200 293.108 C 50.760 292.636,50.400 292.013,50.400 291.725 C 50.400 291.436,50.220 291.200,50.000 291.200 C 49.780 291.200,49.600 290.880,49.600 290.488 C 49.600 290.097,49.240 289.517,48.800 289.200 C 48.360 288.883,48.000 288.303,48.000 287.912 C 48.000 287.520,47.820 287.200,47.600 287.200 C 47.380 287.200,47.200 286.840,47.200 286.400 C 47.200 285.960,47.020 285.600,46.800 285.600 C 46.580 285.600,46.400 285.322,46.400 284.983 C 46.400 284.644,46.040 283.980,45.600 283.508 C 45.160 283.036,44.800 282.413,44.800 282.125 C 44.800 281.836,44.620 281.600,44.400 281.600 C 44.180 281.600,44.000 281.240,44.000 280.800 C 44.000 280.360,43.820 280.000,43.600 280.000 C 43.380 280.000,43.200 279.640,43.200 279.200 C 43.200 278.760,43.020 278.400,42.800 278.400 C 42.580 278.400,42.400 278.040,42.400 277.600 C 42.400 277.160,42.228 276.800,42.018 276.800 C 41.808 276.800,41.518 276.170,41.374 275.400 C 41.229 274.630,40.951 274.000,40.755 274.000 C 40.560 274.000,40.400 273.764,40.400 273.475 C 40.400 273.186,40.040 272.205,39.600 271.294 C 39.160 270.384,38.800 269.360,38.800 269.019 C 38.800 268.679,38.620 268.400,38.400 268.400 C 38.180 268.400,38.000 268.051,38.000 267.624 C 38.000 267.197,37.820 266.736,37.600 266.600 C 37.380 266.464,37.200 265.913,37.200 265.376 C 37.200 264.839,37.020 264.400,36.800 264.400 C 36.580 264.400,36.400 264.040,36.400 263.600 C 36.400 263.160,36.220 262.800,36.000 262.800 C 35.780 262.800,35.600 262.361,35.600 261.824 C 35.600 261.287,35.420 260.736,35.200 260.600 C 34.980 260.464,34.800 259.913,34.800 259.376 C 34.800 258.839,34.620 258.400,34.400 258.400 C 34.180 258.400,34.000 257.860,34.000 257.200 C 34.000 256.540,33.820 256.000,33.600 256.000 C 33.380 256.000,33.200 255.561,33.200 255.024 C 33.200 254.487,33.020 253.936,32.800 253.800 C 32.580 253.664,32.400 253.023,32.400 252.376 C 32.400 251.729,32.220 251.200,32.000 251.200 C 31.780 251.200,31.600 250.660,31.600 250.000 C 31.600 249.340,31.420 248.800,31.200 248.800 C 30.980 248.800,30.800 248.170,30.800 247.400 C 30.800 246.630,30.620 246.000,30.400 246.000 C 30.180 246.000,30.000 245.370,30.000 244.600 C 30.000 243.830,29.820 243.200,29.600 243.200 C 29.380 243.200,29.200 242.491,29.200 241.624 C 29.200 240.757,29.020 239.936,28.800 239.800 C 28.580 239.664,28.400 238.843,28.400 237.976 C 28.400 237.109,28.220 236.400,28.000 236.400 C 27.780 236.400,27.600 235.500,27.600 234.400 C 27.600 233.300,27.420 232.400,27.200 232.400 C 26.980 232.400,26.800 231.511,26.800 230.424 C 26.800 229.337,26.620 228.336,26.400 228.200 C 26.180 228.064,26.000 226.898,26.000 225.610 C 26.000 224.321,25.843 223.207,25.651 223.133 C 24.372 222.645,24.351 178.732,25.630 177.420 C 25.833 177.211,26.000 175.906,26.000 174.520 C 26.000 173.107,26.176 172.000,26.400 172.000 C 26.620 172.000,26.800 171.010,26.800 169.800 C 26.800 168.590,26.980 167.600,27.200 167.600 C 27.420 167.600,27.600 166.700,27.600 165.600 C 27.600 164.500,27.780 163.600,28.000 163.600 C 28.220 163.600,28.400 162.880,28.400 162.000 C 28.400 161.120,28.580 160.400,28.800 160.400 C 29.020 160.400,29.200 159.590,29.200 158.600 C 29.200 157.610,29.380 156.800,29.600 156.800 C 29.820 156.800,30.000 156.271,30.000 155.624 C 30.000 154.977,30.180 154.336,30.400 154.200 C 30.620 154.064,30.800 153.333,30.800 152.576 C 30.800 151.819,30.980 151.200,31.200 151.200 C 31.420 151.200,31.600 150.660,31.600 150.000 C 31.600 149.340,31.780 148.800,32.000 148.800 C 32.220 148.800,32.400 148.260,32.400 147.600 C 32.400 146.940,32.580 146.400,32.800 146.400 C 33.020 146.400,33.200 145.860,33.200 145.200 C 33.200 144.540,33.380 144.000,33.600 144.000 C 33.820 144.000,34.000 143.460,34.000 142.800 C 34.000 142.140,34.180 141.600,34.400 141.600 C 34.620 141.600,34.800 141.161,34.800 140.624 C 34.800 140.087,34.980 139.536,35.200 139.400 C 35.420 139.264,35.600 138.713,35.600 138.176 C 35.600 137.639,35.780 137.200,36.000 137.200 C 36.220 137.200,36.400 136.840,36.400 136.400 C 36.400 135.960,36.580 135.600,36.800 135.600 C 37.020 135.600,37.200 135.060,37.200 134.400 C 37.200 133.740,37.380 133.200,37.600 133.200 C 37.820 133.200,38.000 132.840,38.000 132.400 C 38.000 131.960,38.180 131.600,38.400 131.600 C 38.620 131.600,38.800 131.364,38.800 131.075 C 38.800 130.786,39.160 129.805,39.600 128.894 C 40.040 127.984,40.400 126.960,40.400 126.619 C 40.400 126.279,40.560 126.000,40.755 126.000 C 40.951 126.000,41.229 125.370,41.374 124.600 C 41.518 123.830,41.808 123.200,42.018 123.200 C 42.228 123.200,42.400 122.840,42.400 122.400 C 42.400 121.960,42.580 121.600,42.800 121.600 C 43.020 121.600,43.200 121.240,43.200 120.800 C 43.200 120.360,43.380 120.000,43.600 120.000 C 43.820 120.000,44.000 119.640,44.000 119.200 C 44.000 118.760,44.180 118.400,44.400 118.400 C 44.620 118.400,44.800 118.040,44.800 117.600 C 44.800 117.160,44.980 116.800,45.200 116.800 C 45.420 116.800,45.600 116.530,45.600 116.200 C 45.600 115.870,45.780 115.600,46.000 115.600 C 46.220 115.600,46.400 115.330,46.400 115.000 C 46.400 114.670,46.580 114.400,46.800 114.400 C 47.020 114.400,47.200 114.040,47.200 113.600 C 47.200 113.160,47.380 112.800,47.600 112.800 C 47.820 112.800,48.000 112.522,48.000 112.183 C 48.000 111.844,48.360 111.180,48.800 110.708 C 49.240 110.236,49.600 109.613,49.600 109.325 C 49.600 109.036,49.780 108.800,50.000 108.800 C 50.220 108.800,50.400 108.564,50.400 108.275 C 50.400 107.987,50.760 107.364,51.200 106.892 C 51.640 106.420,52.000 105.928,52.000 105.800 C 52.000 105.672,52.360 105.180,52.800 104.708 C 53.240 104.236,53.600 103.613,53.600 103.325 C 53.600 103.036,53.780 102.800,54.000 102.800 C 54.220 102.800,54.400 102.575,54.401 102.300 C 54.401 102.025,54.941 101.170,55.600 100.400 C 56.259 99.630,56.799 98.852,56.799 98.671 C 56.800 98.491,57.025 98.092,57.300 97.785 C 58.502 96.445,58.800 96.006,58.800 95.577 C 58.800 95.326,59.340 94.617,60.000 94.000 C 60.660 93.383,61.200 92.695,61.200 92.470 C 61.200 92.246,61.920 91.356,62.800 90.493 C 63.680 89.631,64.400 88.795,64.400 88.636 C 64.400 88.478,65.300 87.471,66.400 86.400 C 67.500 85.329,68.400 84.284,68.400 84.079 C 68.400 83.772,72.973 78.763,75.879 75.887 C 79.523 72.281,82.884 69.200,83.175 69.200 C 83.370 69.200,84.627 68.120,85.968 66.800 C 87.308 65.480,88.522 64.400,88.665 64.400 C 88.808 64.400,89.631 63.680,90.493 62.800 C 91.356 61.920,92.246 61.200,92.470 61.200 C 92.695 61.200,93.383 60.660,94.000 60.000 C 94.617 59.340,95.332 58.800,95.589 58.800 C 95.847 58.800,96.308 58.575,96.615 58.300 C 97.612 57.406,98.181 57.010,99.300 56.432 C 99.905 56.120,100.400 55.737,100.400 55.581 C 100.400 55.425,100.940 55.073,101.600 54.800 C 102.260 54.527,102.800 54.145,102.800 53.951 C 102.800 53.758,103.036 53.600,103.325 53.600 C 103.613 53.600,104.236 53.240,104.708 52.800 C 105.180 52.360,105.672 52.000,105.800 52.000 C 105.928 52.000,106.420 51.640,106.892 51.200 C 107.364 50.760,107.987 50.400,108.275 50.400 C 108.564 50.400,108.800 50.220,108.800 50.000 C 108.800 49.780,109.036 49.600,109.325 49.600 C 109.613 49.600,110.236 49.240,110.708 48.800 C 111.180 48.360,111.844 48.000,112.183 48.000 C 112.522 48.000,112.800 47.820,112.800 47.600 C 112.800 47.380,113.160 47.200,113.600 47.200 C 114.040 47.200,114.400 47.020,114.400 46.800 C 114.400 46.580,114.670 46.400,115.000 46.400 C 115.330 46.400,115.600 46.220,115.600 46.000 C 115.600 45.780,115.870 45.600,116.200 45.600 C 116.530 45.600,116.800 45.420,116.800 45.200 C 116.800 44.980,117.160 44.800,117.600 44.800 C 118.040 44.800,118.400 44.620,118.400 44.400 C 118.400 44.180,118.760 44.000,119.200 44.000 C 119.640 44.000,120.000 43.820,120.000 43.600 C 120.000 43.380,120.360 43.200,120.800 43.200 C 121.240 43.200,121.600 43.020,121.600 42.800 C 121.600 42.580,121.960 42.400,122.400 42.400 C 122.840 42.400,123.200 42.228,123.200 42.018 C 123.200 41.808,123.830 41.518,124.600 41.374 C 125.370 41.229,126.000 40.951,126.000 40.755 C 126.000 40.560,126.272 40.400,126.605 40.400 C 126.938 40.400,127.568 40.220,128.005 40.000 C 128.442 39.780,129.158 39.420,129.595 39.200 C 130.032 38.980,130.662 38.800,130.995 38.800 C 131.328 38.800,131.600 38.620,131.600 38.400 C 131.600 38.180,131.960 38.000,132.400 38.000 C 132.840 38.000,133.200 37.820,133.200 37.600 C 133.200 37.380,133.740 37.200,134.400 37.200 C 135.060 37.200,135.600 37.020,135.600 36.800 C 135.600 36.580,135.960 36.400,136.400 36.400 C 136.840 36.400,137.200 36.220,137.200 36.000 C 137.200 35.780,137.639 35.600,138.176 35.600 C 138.713 35.600,139.264 35.420,139.400 35.200 C 139.536 34.980,140.087 34.800,140.624 34.800 C 141.161 34.800,141.600 34.620,141.600 34.400 C 141.600 34.180,142.140 34.000,142.800 34.000 C 143.460 34.000,144.000 33.820,144.000 33.600 C 144.000 33.380,144.540 33.200,145.200 33.200 C 145.860 33.200,146.400 33.020,146.400 32.800 C 146.400 32.580,146.940 32.400,147.600 32.400 C 148.260 32.400,148.800 32.220,148.800 32.000 C 148.800 31.780,149.340 31.600,150.000 31.600 C 150.660 31.600,151.200 31.420,151.200 31.200 C 151.200 30.980,151.819 30.800,152.576 30.800 C 153.333 30.800,154.064 30.620,154.200 30.400 C 154.336 30.180,154.977 30.000,155.624 30.000 C 156.271 30.000,156.800 29.820,156.800 29.600 C 156.800 29.380,157.610 29.200,158.600 29.200 C 159.590 29.200,160.400 29.020,160.400 28.800 C 160.400 28.580,161.120 28.400,162.000 28.400 C 162.880 28.400,163.600 28.220,163.600 28.000 C 163.600 27.780,164.500 27.600,165.600 27.600 C 166.700 27.600,167.600 27.420,167.600 27.200 C 167.600 26.980,168.579 26.800,169.776 26.800 C 170.973 26.800,172.064 26.620,172.200 26.400 C 172.336 26.180,173.481 26.000,174.744 26.000 C 176.007 26.000,177.211 25.834,177.420 25.632 C 177.629 25.429,182.648 25.066,188.573 24.825 C 194.499 24.584,199.439 24.294,199.553 24.181 C 199.666 24.068,200.004 24.070,200.305 24.185 C 200.605 24.300,205.655 24.590,211.526 24.829 M206.800 112.400 C 206.800 112.622,207.859 112.800,209.176 112.800 C 210.483 112.800,211.664 112.980,211.800 113.200 C 211.936 113.420,212.757 113.600,213.624 113.600 C 214.491 113.600,215.200 113.780,215.200 114.000 C 215.200 114.220,215.729 114.400,216.376 114.400 C 217.023 114.400,217.664 114.580,217.800 114.800 C 217.936 115.020,218.476 115.200,219.000 115.200 C 219.524 115.200,220.064 115.380,220.200 115.600 C 220.336 115.820,220.887 116.000,221.424 116.000 C 221.961 116.000,222.400 116.180,222.400 116.400 C 222.400 116.620,222.940 116.800,223.600 116.800 C 224.260 116.800,224.800 116.946,224.800 117.125 C 224.800 117.304,225.430 117.698,226.200 118.000 C 226.970 118.302,227.600 118.696,227.600 118.875 C 227.600 119.054,227.960 119.200,228.400 119.200 C 228.840 119.200,229.200 119.380,229.200 119.600 C 229.200 119.820,229.560 120.000,230.000 120.000 C 230.440 120.000,230.800 120.158,230.800 120.351 C 230.800 120.545,231.340 120.927,232.000 121.200 C 232.660 121.473,233.200 121.855,233.200 122.049 C 233.200 122.242,233.478 122.400,233.817 122.400 C 234.156 122.400,234.831 122.775,235.317 123.234 C 235.803 123.693,236.738 124.349,237.395 124.693 C 238.052 125.037,239.069 125.832,239.655 126.459 C 240.242 127.087,241.009 127.600,241.360 127.600 C 241.712 127.600,242.000 127.777,242.000 127.993 C 242.000 128.209,243.170 129.555,244.600 130.985 C 246.030 132.415,247.200 133.747,247.200 133.944 C 247.200 134.142,247.875 135.005,248.700 135.862 C 249.525 136.720,250.455 137.911,250.768 138.511 C 251.080 139.110,251.485 139.600,251.668 139.600 C 251.850 139.600,252.000 139.830,252.000 140.112 C 252.000 140.393,252.360 140.883,252.800 141.200 C 253.240 141.517,253.600 142.014,253.600 142.305 C 253.600 142.596,253.960 143.220,254.400 143.692 C 254.840 144.164,255.200 144.787,255.200 145.075 C 255.200 145.364,255.380 145.600,255.600 145.600 C 255.820 145.600,256.000 145.960,256.000 146.400 C 256.000 146.840,256.180 147.200,256.400 147.200 C 256.620 147.200,256.800 147.560,256.800 148.000 C 256.800 148.440,256.980 148.800,257.200 148.800 C 257.420 148.800,257.600 149.214,257.600 149.720 C 257.600 150.226,257.750 150.811,257.932 151.020 C 258.115 151.229,258.597 152.570,259.003 154.000 C 259.408 155.430,259.866 156.780,260.020 157.000 C 260.336 157.452,260.749 159.387,261.066 161.900 C 261.184 162.835,261.442 163.600,261.640 163.600 C 261.838 163.600,262.000 164.759,262.000 166.176 C 262.000 167.593,262.180 168.864,262.400 169.000 C 262.637 169.146,262.800 171.596,262.800 175.000 C 262.800 178.404,262.637 180.854,262.400 181.000 C 262.180 181.136,262.000 182.306,262.000 183.600 C 262.000 184.894,261.820 186.064,261.600 186.200 C 261.380 186.336,261.200 187.146,261.200 188.000 C 261.200 188.854,261.020 189.664,260.800 189.800 C 260.580 189.936,260.400 190.667,260.400 191.424 C 260.400 192.181,260.240 192.800,260.045 192.800 C 259.850 192.800,259.592 193.295,259.472 193.900 C 258.942 196.561,258.239 198.800,257.933 198.800 C 257.750 198.800,257.600 199.160,257.600 199.600 C 257.600 200.040,257.420 200.400,257.200 200.400 C 256.980 200.400,256.800 200.653,256.800 200.962 C 256.800 201.628,255.132 204.941,254.700 205.133 C 254.535 205.207,254.400 205.612,254.400 206.033 C 254.400 206.455,254.220 206.800,254.000 206.800 C 253.780 206.800,253.600 207.120,253.600 207.512 C 253.600 207.903,253.240 208.483,252.800 208.800 C 252.360 209.117,252.000 209.567,252.000 209.800 C 252.000 210.033,251.640 210.483,251.200 210.800 C 250.760 211.117,250.400 211.607,250.400 211.888 C 250.400 212.170,250.220 212.400,250.000 212.400 C 249.780 212.400,249.600 212.586,249.600 212.813 C 249.600 213.041,249.015 213.819,248.300 214.543 C 246.974 215.885,245.466 217.679,244.412 219.169 C 244.088 219.626,243.673 220.000,243.490 220.000 C 243.306 220.000,242.096 221.080,240.800 222.400 C 239.504 223.720,238.247 224.800,238.005 224.800 C 237.764 224.800,237.298 225.025,236.969 225.300 C 236.641 225.575,236.153 225.980,235.886 226.200 C 235.619 226.420,234.905 226.855,234.300 227.168 C 233.695 227.480,233.200 227.885,233.200 228.068 C 233.200 228.250,232.840 228.400,232.400 228.400 C 231.960 228.400,231.599 228.535,231.599 228.700 C 231.598 228.865,230.608 229.450,229.400 230.000 C 228.192 230.550,227.202 231.135,227.201 231.300 C 227.201 231.465,226.840 231.600,226.400 231.600 C 225.960 231.600,225.600 231.780,225.600 232.000 C 225.600 232.220,225.240 232.400,224.800 232.400 C 224.360 232.400,224.000 232.580,224.000 232.800 C 224.000 233.020,223.561 233.200,223.024 233.200 C 222.487 233.200,221.936 233.380,221.800 233.600 C 221.664 233.820,221.203 234.000,220.776 234.000 C 220.349 234.000,220.000 234.180,220.000 234.400 C 220.000 234.620,219.471 234.800,218.824 234.800 C 218.177 234.800,217.536 234.980,217.400 235.200 C 217.264 235.420,216.533 235.600,215.776 235.600 C 215.019 235.600,214.400 235.780,214.400 236.000 C 214.400 236.220,213.601 236.400,212.624 236.400 C 211.647 236.400,210.736 236.580,210.600 236.800 C 210.464 237.020,209.013 237.200,207.376 237.200 C 205.659 237.200,204.400 237.369,204.400 237.600 C 204.400 237.842,202.667 238.000,200.000 238.000 C 197.333 238.000,195.600 237.842,195.600 237.600 C 195.600 237.369,194.341 237.200,192.624 237.200 C 190.987 237.200,189.536 237.020,189.400 236.800 C 189.264 236.580,188.353 236.400,187.376 236.400 C 186.399 236.400,185.600 236.220,185.600 236.000 C 185.600 235.780,184.981 235.600,184.224 235.600 C 183.467 235.600,182.736 235.420,182.600 235.200 C 182.464 234.980,181.823 234.800,181.176 234.800 C 180.529 234.800,180.000 234.620,180.000 234.400 C 180.000 234.180,179.651 234.000,179.224 234.000 C 178.797 234.000,178.336 233.820,178.200 233.600 C 178.064 233.380,177.513 233.200,176.976 233.200 C 176.439 233.200,176.000 233.020,176.000 232.800 C 176.000 232.580,175.640 232.400,175.200 232.400 C 174.760 232.400,174.400 232.220,174.400 232.000 C 174.400 231.780,174.040 231.600,173.600 231.600 C 173.160 231.600,172.799 231.465,172.799 231.300 C 172.798 231.135,171.808 230.550,170.600 230.000 C 169.392 229.450,168.402 228.865,168.401 228.700 C 168.401 228.535,168.040 228.400,167.600 228.400 C 167.160 228.400,166.800 228.250,166.800 228.068 C 166.800 227.885,166.305 227.480,165.700 227.168 C 164.581 226.590,164.012 226.194,163.015 225.300 C 162.708 225.025,162.254 224.800,162.006 224.800 C 161.759 224.800,160.496 223.720,159.200 222.400 C 157.904 221.080,156.694 220.000,156.510 220.000 C 156.327 220.000,155.912 219.626,155.588 219.169 C 154.534 217.679,153.026 215.885,151.700 214.543 C 150.985 213.819,150.400 213.041,150.400 212.813 C 150.400 212.586,150.220 212.400,150.000 212.400 C 149.780 212.400,149.600 212.170,149.600 211.888 C 149.600 211.607,149.240 211.117,148.800 210.800 C 148.360 210.483,148.000 210.033,148.000 209.800 C 148.000 209.567,147.640 209.117,147.200 208.800 C 146.760 208.483,146.400 207.903,146.400 207.512 C 146.400 207.120,146.220 206.800,146.000 206.800 C 145.780 206.800,145.600 206.440,145.600 206.000 C 145.600 205.560,145.420 205.200,145.200 205.200 C 144.980 205.200,144.800 204.840,144.800 204.400 C 144.800 203.960,144.665 203.599,144.500 203.597 C 144.141 203.593,143.200 201.656,143.200 200.920 C 143.200 200.634,143.020 200.400,142.800 200.400 C 142.580 200.400,142.400 200.040,142.400 199.600 C 142.400 199.160,142.250 198.800,142.067 198.800 C 141.761 198.800,141.058 196.561,140.528 193.900 C 140.408 193.295,140.150 192.800,139.955 192.800 C 139.760 192.800,139.600 192.181,139.600 191.424 C 139.600 190.667,139.420 189.936,139.200 189.800 C 138.980 189.664,138.800 188.854,138.800 188.000 C 138.800 187.146,138.620 186.336,138.400 186.200 C 138.180 186.064,138.000 184.894,138.000 183.600 C 138.000 182.306,137.820 181.136,137.600 181.000 C 137.363 180.854,137.200 178.404,137.200 175.000 C 137.200 171.596,137.363 169.146,137.600 169.000 C 137.820 168.864,138.000 167.593,138.000 166.176 C 138.000 164.759,138.162 163.600,138.360 163.600 C 138.558 163.600,138.816 162.835,138.934 161.900 C 139.251 159.387,139.664 157.452,139.980 157.000 C 140.134 156.780,140.592 155.430,140.997 154.000 C 141.403 152.570,141.885 151.229,142.068 151.020 C 142.250 150.811,142.400 150.226,142.400 149.720 C 142.400 149.214,142.580 148.800,142.800 148.800 C 143.020 148.800,143.200 148.440,143.200 148.000 C 143.200 147.560,143.380 147.200,143.600 147.200 C 143.820 147.200,144.000 146.840,144.000 146.400 C 144.000 145.960,144.180 145.600,144.400 145.600 C 144.620 145.600,144.800 145.364,144.800 145.075 C 144.800 144.787,145.160 144.164,145.600 143.692 C 146.040 143.220,146.400 142.596,146.400 142.305 C 146.400 142.014,146.760 141.517,147.200 141.200 C 147.640 140.883,148.000 140.393,148.000 140.112 C 148.000 139.830,148.150 139.600,148.332 139.600 C 148.515 139.600,148.920 139.106,149.232 138.503 C 149.545 137.900,150.385 136.814,151.100 136.090 C 151.815 135.366,152.400 134.608,152.400 134.406 C 152.400 134.204,153.660 132.762,155.200 131.200 C 156.740 129.638,158.000 128.190,158.000 127.980 C 158.000 127.771,158.288 127.600,158.640 127.600 C 158.991 127.600,159.758 127.087,160.345 126.459 C 160.931 125.832,161.948 125.037,162.605 124.693 C 163.262 124.349,164.197 123.693,164.683 123.234 C 165.169 122.775,165.844 122.400,166.183 122.400 C 166.522 122.400,166.800 122.242,166.800 122.049 C 166.800 121.855,167.340 121.473,168.000 121.200 C 168.660 120.927,169.200 120.545,169.200 120.351 C 169.200 120.158,169.560 120.000,170.000 120.000 C 170.440 120.000,170.800 119.820,170.800 119.600 C 170.800 119.380,171.160 119.200,171.600 119.200 C 172.040 119.200,172.400 119.054,172.400 118.875 C 172.400 118.696,173.030 118.302,173.800 118.000 C 174.570 117.698,175.200 117.304,175.200 117.125 C 175.200 116.946,175.740 116.800,176.400 116.800 C 177.060 116.800,177.600 116.659,177.600 116.487 C 177.600 116.315,178.455 115.943,179.500 115.661 C 180.545 115.378,181.713 114.979,182.095 114.773 C 182.477 114.568,183.242 114.400,183.795 114.400 C 184.348 114.400,184.800 114.220,184.800 114.000 C 184.800 113.780,185.509 113.600,186.376 113.600 C 187.243 113.600,188.064 113.420,188.200 113.200 C 188.336 112.980,189.517 112.800,190.824 112.800 C 192.141 112.800,193.200 112.622,193.200 112.400 C 193.200 112.149,195.733 112.000,200.000 112.000 C 204.267 112.000,206.800 112.149,206.800 112.400 M210.400 263.200 C 210.400 263.429,211.600 263.600,213.200 263.600 C 214.800 263.600,216.000 263.771,216.000 264.000 C 216.000 264.220,216.900 264.400,218.000 264.400 C 219.100 264.400,220.000 264.580,220.000 264.800 C 220.000 265.020,220.900 265.200,222.000 265.200 C 223.100 265.200,224.000 265.380,224.000 265.600 C 224.000 265.820,224.630 266.000,225.400 266.000 C 226.170 266.000,226.800 266.180,226.800 266.400 C 226.800 266.620,227.340 266.800,228.000 266.800 C 228.660 266.800,229.200 266.980,229.200 267.200 C 229.200 267.420,229.740 267.600,230.400 267.600 C 231.060 267.600,231.600 267.780,231.600 268.000 C 231.600 268.220,232.140 268.400,232.800 268.400 C 233.460 268.400,234.000 268.580,234.000 268.800 C 234.000 269.020,234.540 269.200,235.200 269.200 C 235.860 269.200,236.400 269.380,236.400 269.600 C 236.400 269.820,236.760 270.000,237.200 270.000 C 237.640 270.000,238.000 270.141,238.000 270.313 C 238.000 270.485,238.855 270.874,239.900 271.178 C 240.945 271.482,241.890 271.847,242.000 271.989 C 242.178 272.218,244.044 273.138,248.900 275.394 C 249.725 275.778,250.400 276.251,250.400 276.446 C 250.400 276.641,250.760 276.800,251.200 276.800 C 251.640 276.800,252.000 276.980,252.000 277.200 C 252.000 277.420,252.236 277.600,252.525 277.600 C 252.813 277.600,253.436 277.960,253.908 278.400 C 254.380 278.840,255.004 279.200,255.295 279.200 C 255.586 279.200,256.083 279.560,256.400 280.000 C 256.717 280.440,257.205 280.800,257.485 280.800 C 257.764 280.800,258.509 281.340,259.140 282.000 C 259.771 282.660,260.402 283.200,260.543 283.200 C 260.684 283.200,261.541 283.920,262.448 284.800 C 263.355 285.680,264.245 286.400,264.427 286.400 C 265.345 286.400,275.624 296.686,277.292 299.274 C 277.673 299.865,278.438 300.802,278.992 301.356 C 279.546 301.910,280.000 302.525,280.000 302.722 C 280.000 302.920,280.495 303.606,281.100 304.248 C 281.705 304.889,282.455 305.906,282.768 306.507 C 283.080 307.108,283.485 307.600,283.668 307.600 C 283.850 307.600,284.000 307.870,284.000 308.200 C 284.000 308.530,284.180 308.800,284.400 308.800 C 284.620 308.800,284.800 309.036,284.800 309.325 C 284.800 309.613,285.160 310.236,285.600 310.708 C 286.040 311.180,286.400 311.844,286.400 312.183 C 286.400 312.522,286.580 312.800,286.800 312.800 C 287.020 312.800,287.200 313.036,287.200 313.325 C 287.200 313.613,287.560 314.236,288.000 314.708 C 288.440 315.180,288.800 315.844,288.800 316.183 C 288.800 316.522,288.980 316.800,289.200 316.800 C 289.420 316.800,289.600 317.160,289.600 317.600 C 289.600 318.040,289.780 318.400,290.000 318.400 C 290.220 318.400,290.400 318.760,290.400 319.200 C 290.400 319.640,290.580 320.000,290.800 320.000 C 291.020 320.000,291.200 320.349,291.200 320.776 C 291.200 321.203,291.380 321.664,291.600 321.800 C 291.820 321.936,292.001 322.352,292.002 322.724 C 292.004 323.096,292.242 323.854,292.531 324.409 C 292.821 324.963,293.309 326.268,293.616 327.309 C 293.923 328.349,294.315 329.200,294.487 329.200 C 294.659 329.200,294.800 329.740,294.800 330.400 C 294.800 331.060,294.980 331.600,295.200 331.600 C 295.420 331.600,295.600 332.140,295.600 332.800 C 295.600 333.460,295.780 334.000,296.000 334.000 C 296.220 334.000,296.400 334.619,296.400 335.376 C 296.400 336.133,296.580 336.864,296.800 337.000 C 297.020 337.136,297.200 337.867,297.200 338.624 C 297.200 339.381,297.380 340.000,297.600 340.000 C 297.820 340.000,298.000 340.720,298.000 341.600 C 298.000 342.480,298.180 343.200,298.400 343.200 C 299.178 343.200,298.825 345.138,298.000 345.400 C 297.560 345.540,297.200 345.822,297.200 346.027 C 297.200 346.232,296.964 346.400,296.675 346.400 C 296.387 346.400,295.764 346.760,295.292 347.200 C 294.820 347.640,294.328 348.000,294.200 348.000 C 294.072 348.000,293.580 348.360,293.108 348.800 C 292.636 349.240,292.013 349.600,291.725 349.600 C 291.436 349.600,291.200 349.780,291.200 350.000 C 291.200 350.220,290.880 350.400,290.488 350.400 C 290.097 350.400,289.517 350.760,289.200 351.200 C 288.883 351.640,288.303 352.000,287.912 352.000 C 287.520 352.000,287.200 352.180,287.200 352.400 C 287.200 352.620,286.840 352.800,286.400 352.800 C 285.960 352.800,285.600 352.980,285.600 353.200 C 285.600 353.420,285.330 353.600,285.000 353.600 C 284.670 353.600,284.400 353.780,284.400 354.000 C 284.400 354.220,284.130 354.400,283.800 354.400 C 283.470 354.400,283.200 354.580,283.200 354.800 C 283.200 355.020,282.840 355.200,282.400 355.200 C 281.960 355.200,281.600 355.380,281.600 355.600 C 281.600 355.820,281.240 356.000,280.800 356.000 C 280.360 356.000,280.000 356.180,280.000 356.400 C 280.000 356.620,279.640 356.800,279.200 356.800 C 278.760 356.800,278.400 356.980,278.400 357.200 C 278.400 357.420,278.040 357.600,277.600 357.600 C 277.160 357.600,276.800 357.772,276.800 357.982 C 276.800 358.192,276.170 358.482,275.400 358.626 C 274.630 358.771,274.000 359.049,274.000 359.245 C 274.000 359.440,273.764 359.600,273.475 359.600 C 273.186 359.600,272.205 359.960,271.294 360.400 C 270.384 360.840,269.360 361.200,269.019 361.200 C 268.679 361.200,268.400 361.380,268.400 361.600 C 268.400 361.820,268.040 362.000,267.600 362.000 C 267.160 362.000,266.800 362.180,266.800 362.400 C 266.800 362.620,266.361 362.800,265.824 362.800 C 265.287 362.800,264.736 362.980,264.600 363.200 C 264.464 363.420,264.003 363.600,263.576 363.600 C 263.149 363.600,262.800 363.780,262.800 364.000 C 262.800 364.220,262.361 364.400,261.824 364.400 C 261.287 364.400,260.736 364.580,260.600 364.800 C 260.464 365.020,259.913 365.200,259.376 365.200 C 258.839 365.200,258.400 365.380,258.400 365.600 C 258.400 365.820,257.860 366.000,257.200 366.000 C 256.540 366.000,256.000 366.180,256.000 366.400 C 256.000 366.620,255.460 366.800,254.800 366.800 C 254.140 366.800,253.600 366.980,253.600 367.200 C 253.600 367.420,253.060 367.600,252.400 367.600 C 251.740 367.600,251.200 367.780,251.200 368.000 C 251.200 368.220,250.660 368.400,250.000 368.400 C 249.340 368.400,248.800 368.580,248.800 368.800 C 248.800 369.020,248.170 369.200,247.400 369.200 C 246.630 369.200,246.000 369.380,246.000 369.600 C 246.000 369.820,245.280 370.000,244.400 370.000 C 243.520 370.000,242.800 370.180,242.800 370.400 C 242.800 370.620,242.181 370.800,241.424 370.800 C 240.667 370.800,239.936 370.980,239.800 371.200 C 239.664 371.420,238.843 371.600,237.976 371.600 C 237.109 371.600,236.400 371.780,236.400 372.000 C 236.400 372.220,235.500 372.400,234.400 372.400 C 233.300 372.400,232.400 372.580,232.400 372.800 C 232.400 373.020,231.410 373.200,230.200 373.200 C 228.990 373.200,228.000 373.380,228.000 373.600 C 228.000 373.822,226.944 374.000,225.633 374.000 C 224.332 374.000,223.207 374.158,223.133 374.350 C 223.034 374.611,204.309 375.719,200.000 375.719 C 195.691 375.719,176.966 374.611,176.867 374.350 C 176.793 374.158,175.769 374.000,174.590 374.000 C 173.412 374.000,172.336 373.820,172.200 373.600 C 172.064 373.380,170.973 373.200,169.776 373.200 C 168.579 373.200,167.600 373.020,167.600 372.800 C 167.600 372.580,166.700 372.400,165.600 372.400 C 164.500 372.400,163.600 372.220,163.600 372.000 C 163.600 371.780,162.801 371.600,161.824 371.600 C 160.847 371.600,159.936 371.420,159.800 371.200 C 159.664 370.980,159.023 370.800,158.376 370.800 C 157.729 370.800,157.200 370.620,157.200 370.400 C 157.200 370.180,156.480 370.000,155.600 370.000 C 154.720 370.000,154.000 369.820,154.000 369.600 C 154.000 369.380,153.370 369.200,152.600 369.200 C 151.830 369.200,151.200 369.020,151.200 368.800 C 151.200 368.580,150.660 368.400,150.000 368.400 C 149.340 368.400,148.800 368.220,148.800 368.000 C 148.800 367.780,148.260 367.600,147.600 367.600 C 146.940 367.600,146.400 367.420,146.400 367.200 C 146.400 366.980,145.860 366.800,145.200 366.800 C 144.540 366.800,144.000 366.620,144.000 366.400 C 144.000 366.180,143.460 366.000,142.800 366.000 C 142.140 366.000,141.600 365.820,141.600 365.600 C 141.600 365.380,141.161 365.200,140.624 365.200 C 140.087 365.200,139.536 365.020,139.400 364.800 C 139.264 364.580,138.713 364.400,138.176 364.400 C 137.639 364.400,137.200 364.220,137.200 364.000 C 137.200 363.780,136.851 363.600,136.424 363.600 C 135.997 363.600,135.536 363.420,135.400 363.200 C 135.264 362.980,134.713 362.800,134.176 362.800 C 133.639 362.800,133.200 362.620,133.200 362.400 C 133.200 362.180,132.840 362.000,132.400 362.000 C 131.960 362.000,131.600 361.820,131.600 361.600 C 131.600 361.380,131.321 361.200,130.981 361.200 C 130.640 361.200,129.616 360.840,128.706 360.400 C 127.795 359.960,126.814 359.600,126.525 359.600 C 126.236 359.600,126.000 359.440,126.000 359.245 C 126.000 359.049,125.370 358.771,124.600 358.626 C 123.830 358.482,123.200 358.192,123.200 357.982 C 123.200 357.772,122.840 357.600,122.400 357.600 C 121.960 357.600,121.600 357.420,121.600 357.200 C 121.600 356.980,121.240 356.800,120.800 356.800 C 120.360 356.800,120.000 356.620,120.000 356.400 C 120.000 356.180,119.640 356.000,119.200 356.000 C 118.760 356.000,118.400 355.820,118.400 355.600 C 118.400 355.380,118.122 355.200,117.783 355.200 C 117.444 355.200,116.780 354.840,116.308 354.400 C 115.836 353.960,115.213 353.600,114.925 353.600 C 114.636 353.600,114.400 353.420,114.400 353.200 C 114.400 352.980,114.040 352.800,113.600 352.800 C 113.160 352.800,112.800 352.620,112.800 352.400 C 112.800 352.180,112.480 352.000,112.088 352.000 C 111.697 352.000,111.117 351.640,110.800 351.200 C 110.483 350.760,109.903 350.400,109.512 350.400 C 109.120 350.400,108.800 350.220,108.800 350.000 C 108.800 349.780,108.564 349.600,108.275 349.600 C 107.987 349.600,107.364 349.240,106.892 348.800 C 106.420 348.360,105.928 348.000,105.800 348.000 C 105.672 348.000,105.180 347.640,104.708 347.200 C 104.236 346.760,103.613 346.400,103.325 346.400 C 103.036 346.400,102.800 346.232,102.800 346.027 C 102.800 345.822,102.440 345.540,102.000 345.400 C 101.175 345.138,100.822 343.200,101.600 343.200 C 101.820 343.200,102.000 342.480,102.000 341.600 C 102.000 340.720,102.180 340.000,102.400 340.000 C 102.620 340.000,102.800 339.381,102.800 338.624 C 102.800 337.867,102.980 337.136,103.200 337.000 C 103.420 336.864,103.600 336.133,103.600 335.376 C 103.600 334.619,103.780 334.000,104.000 334.000 C 104.220 334.000,104.400 333.460,104.400 332.800 C 104.400 332.140,104.580 331.600,104.800 331.600 C 105.020 331.600,105.200 331.060,105.200 330.400 C 105.200 329.740,105.341 329.200,105.513 329.200 C 105.685 329.200,106.077 328.349,106.384 327.309 C 106.691 326.268,107.179 324.963,107.469 324.409 C 107.758 323.854,107.996 323.096,107.998 322.724 C 107.999 322.352,108.180 321.936,108.400 321.800 C 108.620 321.664,108.800 321.203,108.800 320.776 C 108.800 320.349,108.980 320.000,109.200 320.000 C 109.420 320.000,109.600 319.640,109.600 319.200 C 109.600 318.760,109.780 318.400,110.000 318.400 C 110.220 318.400,110.400 318.040,110.400 317.600 C 110.400 317.160,110.580 316.800,110.800 316.800 C 111.020 316.800,111.200 316.522,111.200 316.183 C 111.200 315.844,111.560 315.180,112.000 314.708 C 112.440 314.236,112.800 313.613,112.800 313.325 C 112.800 313.036,112.980 312.800,113.200 312.800 C 113.420 312.800,113.600 312.440,113.600 312.000 C 113.600 311.560,113.780 311.200,114.000 311.200 C 114.220 311.200,114.400 310.964,114.400 310.675 C 114.400 310.387,114.760 309.764,115.200 309.292 C 115.640 308.820,116.000 308.246,116.000 308.017 C 116.000 307.788,116.150 307.600,116.332 307.600 C 116.515 307.600,116.920 307.108,117.232 306.507 C 117.545 305.906,118.295 304.889,118.900 304.248 C 119.505 303.606,120.000 302.910,120.000 302.701 C 120.000 302.492,120.510 301.844,121.133 301.260 C 121.757 300.677,122.491 299.780,122.766 299.266 C 123.872 297.195,134.612 286.400,135.567 286.400 C 135.752 286.400,136.645 285.680,137.552 284.800 C 138.459 283.920,139.316 283.200,139.457 283.200 C 139.598 283.200,140.229 282.660,140.860 282.000 C 141.491 281.340,142.236 280.800,142.515 280.800 C 142.795 280.800,143.283 280.440,143.600 280.000 C 143.917 279.560,144.457 279.200,144.800 279.200 C 145.143 279.200,145.683 278.840,146.000 278.400 C 146.317 277.960,146.897 277.600,147.288 277.600 C 147.680 277.600,148.000 277.420,148.000 277.200 C 148.000 276.980,148.360 276.800,148.800 276.800 C 149.240 276.800,149.600 276.641,149.600 276.446 C 149.600 276.251,150.275 275.778,151.100 275.394 C 155.956 273.138,157.822 272.218,158.000 271.989 C 158.110 271.847,159.055 271.482,160.100 271.178 C 161.145 270.874,162.000 270.485,162.000 270.313 C 162.000 270.141,162.360 270.000,162.800 270.000 C 163.240 270.000,163.600 269.820,163.600 269.600 C 163.600 269.380,164.140 269.200,164.800 269.200 C 165.460 269.200,166.000 269.020,166.000 268.800 C 166.000 268.580,166.540 268.400,167.200 268.400 C 167.860 268.400,168.400 268.220,168.400 268.000 C 168.400 267.780,168.940 267.600,169.600 267.600 C 170.260 267.600,170.800 267.420,170.800 267.200 C 170.800 266.980,171.340 266.800,172.000 266.800 C 172.660 266.800,173.200 266.620,173.200 266.400 C 173.200 266.180,173.830 266.000,174.600 266.000 C 175.370 266.000,176.000 265.820,176.000 265.600 C 176.000 265.380,176.900 265.200,178.000 265.200 C 179.100 265.200,180.000 265.020,180.000 264.800 C 180.000 264.580,180.900 264.400,182.000 264.400 C 183.100 264.400,184.000 264.220,184.000 264.000 C 184.000 263.771,185.200 263.600,186.800 263.600 C 188.400 263.600,189.600 263.429,189.600 263.200 C 189.600 262.944,193.333 262.800,200.000 262.800 C 206.667 262.800,210.400 262.944,210.400 263.200 " stroke="none" fill="#040404" fill-rule="evenodd"></path><path id="path1" d="" stroke="none" fill="#080404" fill-rule="evenodd"></path><path id="path2" d="" stroke="none" fill="#080404" fill-rule="evenodd"></path><path id="path3" d="" stroke="none" fill="#080404" fill-rule="evenodd"></path><path id="path4" d="" stroke="none" fill="#080404" fill-rule="evenodd"></path></g></svg>